<?xml version="1.0" encoding="UTF-8"?><svg xmlns="http://www.w3.org/2000/svg" xmlns:xlink="http://www.w3.org/1999/xlink" height="1723" version="1.1" viewBox="0 0 3990 1723" width="3990"><rect fill="#AED6F1" height="40" stroke="#2980B9" stroke-width="2.0" width="140" x="5" y="758"/><text fill="#774400" font-decoration="none" font-family="Arial,Helvetica" font-size="22" font-weight="normal" text-anchor="middle"><tspan x="75" y="786">exampleJSON</tspan></text><rect fill="#AED6F1" height="40" stroke="#2980B9" stroke-width="2.0" width="80" x="208" y="211"/><text fill="#774400" font-decoration="none" font-family="Arial,Helvetica" font-size="22" font-weight="normal" text-anchor="middle"><tspan x="248" y="239">images</tspan></text><rect fill="#AED6F1" height="40" stroke="#2980B9" stroke-width="2.0" width="100" x="348" y="211"/><text fill="#774400" font-decoration="none" font-family="Arial,Helvetica" font-size="22" font-weight="normal" text-anchor="middle"><tspan x="398" y="239">example</tspan></text><rect fill="#AED6F1" height="40" stroke="#2980B9" stroke-width="2.0" width="60" x="208" y="421"/><text fill="#774400" font-decoration="none" font-family="Arial,Helvetica" font-size="22" font-weight="normal" text-anchor="middle"><tspan x="238" y="449">post</tspan></text><rect fill="#AED6F1" height="40" stroke="#2980B9" stroke-width="2.0" width="80" x="208" y="1306"/><text fill="#774400" font-decoration="none" font-family="Arial,Helvetica" font-size="22" font-weight="normal" text-anchor="middle"><tspan x="248" y="1334">profile</tspan></text><path d="M 338 431 L 348 441 L 338 451 L 328 441 Z" fill="#8B8B8B" stroke="#8B8B8B" stroke-width="2.0"/><text fill="#774400" font-decoration="none" font-family="Arial,Helvetica" font-size="0" font-weight="normal" text-anchor="middle"><tspan x="338" y="439">post_map</tspan></text><path d="M 418 431 L 428 441 L 418 451 L 408 441 Z" fill="#8B8B8B" stroke="#8B8B8B" stroke-width="2.0"/><text fill="#774400" font-decoration="none" font-family="Arial,Helvetica" font-size="0" font-weight="normal" text-anchor="middle"><tspan x="418" y="439">posts</tspan></text><path d="M 498 431 L 508 441 L 498 451 L 488 441 Z" fill="#8B8B8B" stroke="#8B8B8B" stroke-width="2.0"/><text fill="#774400" font-decoration="none" font-family="Arial,Helvetica" font-size="0" font-weight="normal" text-anchor="middle"><tspan x="498" y="439">list</tspan></text><path d="M 578 131 L 588 141 L 578 151 L 568 141 Z" fill="#8B8B8B" stroke="#8B8B8B" stroke-width="2.0"/><text fill="#774400" font-decoration="none" font-family="Arial,Helvetica" font-size="0" font-weight="normal" text-anchor="middle"><tspan x="578" y="139">list_map</tspan></text><path d="M 658 11 L 668 21 L 658 31 L 648 21 Z" fill="#8B8B8B" stroke="#8B8B8B" stroke-width="2.0"/><text fill="#774400" font-decoration="none" font-family="Arial,Helvetica" font-size="0" font-weight="normal" text-anchor="middle"><tspan x="658" y="19">date</tspan></text><ellipse cx="871" cy="21" fill="#F9E79F" rx="140" ry="20" stroke="#B7950B" stroke-width="2.0"/><text fill="#774400" font-decoration="none" font-family="Arial,Helvetica" font-size="18" font-weight="normal" text-anchor="middle"><tspan x="871" y="27">2020-10-08T12:14:30+00:00</tspan></text><path d="M 658 131 L 668 141 L 658 151 L 648 141 Z" fill="#8B8B8B" stroke="#8B8B8B" stroke-width="2.0"/><text fill="#774400" font-decoration="none" font-family="Arial,Helvetica" font-size="0" font-weight="normal" text-anchor="middle"><tspan x="658" y="139">text</tspan></text><ellipse cx="868" cy="141" fill="#F9E79F" rx="140" ry="20" stroke="#B7950B" stroke-width="2.0"/><text fill="#774400" font-decoration="none" font-family="Arial,Helvetica" font-size="18" font-weight="normal" text-anchor="middle"><tspan x="867" y="147">Lorem ipsum dolor sit amet.</tspan></text><path d="M 658 251 L 668 261 L 658 271 L 648 261 Z" fill="#8B8B8B" stroke="#8B8B8B" stroke-width="2.0"/><text fill="#774400" font-decoration="none" font-family="Arial,Helvetica" font-size="0" font-weight="normal" text-anchor="middle"><tspan x="658" y="259">media</tspan></text><ellipse cx="830" cy="261" fill="#F9E79F" rx="100" ry="20" stroke="#B7950B" stroke-width="2.0"/><text fill="#774400" font-decoration="none" font-family="Arial,Helvetica" font-size="18" font-weight="normal" text-anchor="middle"><tspan x="830" y="267">www.example.com</tspan></text><path d="M 578 431 L 588 441 L 578 451 L 568 441 Z" fill="#8B8B8B" stroke="#8B8B8B" stroke-width="2.0"/><text fill="#774400" font-decoration="none" font-family="Arial,Helvetica" font-size="0" font-weight="normal" text-anchor="middle"><tspan x="578" y="439">list_map</tspan></text><path d="M 658 371 L 668 381 L 658 391 L 648 381 Z" fill="#8B8B8B" stroke="#8B8B8B" stroke-width="2.0"/><text fill="#774400" font-decoration="none" font-family="Arial,Helvetica" font-size="0" font-weight="normal" text-anchor="middle"><tspan x="658" y="379">date</tspan></text><ellipse cx="871" cy="381" fill="#F9E79F" rx="140" ry="20" stroke="#B7950B" stroke-width="2.0"/><text fill="#774400" font-decoration="none" font-family="Arial,Helvetica" font-size="18" font-weight="normal" text-anchor="middle"><tspan x="871" y="387">2022-05-04T16:15:20+01:00</tspan></text><path d="M 658 491 L 668 501 L 658 511 L 648 501 Z" fill="#8B8B8B" stroke="#8B8B8B" stroke-width="2.0"/><text fill="#774400" font-decoration="none" font-family="Arial,Helvetica" font-size="0" font-weight="normal" text-anchor="middle"><tspan x="658" y="499">text</tspan></text><ellipse cx="2358" cy="501" fill="#F9E79F" rx="1630" ry="20" stroke="#B7950B" stroke-width="2.0"/><text fill="#774400" font-decoration="none" font-family="Arial,Helvetica" font-size="18" font-weight="normal" text-anchor="middle"><tspan x="2357" y="507">Nullam viverra justo nec velit rhoncus dapibus. Curabitur laoreet tristique scelerisque. Duis ut pretium ex. Vivamus vulputate elit et aliquet viverra. Donec suscipit laoreet arcu eu faucibus. In iaculis finibus turpis, sed rhoncus lectus. Pellentesque egestas, dolor in posuere sollicitudin, velit urna faucibus leo, quis congue enim velit a magna. </tspan></text><path d="M 578 731 L 588 741 L 578 751 L 568 741 Z" fill="#8B8B8B" stroke="#8B8B8B" stroke-width="2.0"/><text fill="#774400" font-decoration="none" font-family="Arial,Helvetica" font-size="0" font-weight="normal" text-anchor="middle"><tspan x="578" y="739">list_map</tspan></text><path d="M 658 611 L 668 621 L 658 631 L 648 621 Z" fill="#8B8B8B" stroke="#8B8B8B" stroke-width="2.0"/><text fill="#774400" font-decoration="none" font-family="Arial,Helvetica" font-size="0" font-weight="normal" text-anchor="middle"><tspan x="658" y="619">date</tspan></text><ellipse cx="871" cy="621" fill="#F9E79F" rx="140" ry="20" stroke="#B7950B" stroke-width="2.0"/><text fill="#774400" font-decoration="none" font-family="Arial,Helvetica" font-size="18" font-weight="normal" text-anchor="middle"><tspan x="871" y="627">2024-01-31T08:12:45+00:00</tspan></text><path d="M 658 731 L 668 741 L 658 751 L 648 741 Z" fill="#8B8B8B" stroke="#8B8B8B" stroke-width="2.0"/><text fill="#774400" font-decoration="none" font-family="Arial,Helvetica" font-size="0" font-weight="normal" text-anchor="middle"><tspan x="658" y="739">text</tspan></text><ellipse cx="1368" cy="741" fill="#F9E79F" rx="640" ry="20" stroke="#B7950B" stroke-width="2.0"/><text fill="#774400" font-decoration="none" font-family="Arial,Helvetica" font-size="18" font-weight="normal" text-anchor="middle"><tspan x="1367" y="747"> Nullam feugiat non orci non ullamcorper. Duis ut condimentum arcu. Sed lacus dui, mollis eu mauris sit amet, imperdiet porttitor felis. </tspan></text><path d="M 658 851 L 668 861 L 658 871 L 648 861 Z" fill="#8B8B8B" stroke="#8B8B8B" stroke-width="2.0"/><text fill="#774400" font-decoration="none" font-family="Arial,Helvetica" font-size="0" font-weight="normal" text-anchor="middle"><tspan x="658" y="859">media</tspan></text><ellipse cx="838" cy="861" fill="#F9E79F" rx="110" ry="20" stroke="#B7950B" stroke-width="2.0"/><text fill="#774400" font-decoration="none" font-family="Arial,Helvetica" font-size="18" font-weight="normal" text-anchor="middle"><tspan x="838" y="867">/images/example.png</tspan></text><path d="M 358 1316 L 368 1326 L 358 1336 L 348 1326 Z" fill="#8B8B8B" stroke="#8B8B8B" stroke-width="2.0"/><text fill="#774400" font-decoration="none" font-family="Arial,Helvetica" font-size="0" font-weight="normal" text-anchor="middle"><tspan x="358" y="1324">profile_map</tspan></text><path d="M 438 1091 L 448 1101 L 438 1111 L 428 1101 Z" fill="#8B8B8B" stroke="#8B8B8B" stroke-width="2.0"/><text fill="#774400" font-decoration="none" font-family="Arial,Helvetica" font-size="0" font-weight="normal" text-anchor="middle"><tspan x="438" y="1099">ip_addresses</tspan></text><path d="M 518 1091 L 528 1101 L 518 1111 L 508 1101 Z" fill="#8B8B8B" stroke="#8B8B8B" stroke-width="2.0"/><text fill="#774400" font-decoration="none" font-family="Arial,Helvetica" font-size="0" font-weight="normal" text-anchor="middle"><tspan x="518" y="1099">list</tspan></text><ellipse cx="663" cy="981" fill="#F9E79F" rx="70" ry="20" stroke="#B7950B" stroke-width="2.0"/><text fill="#774400" font-decoration="none" font-family="Arial,Helvetica" font-size="18" font-weight="normal" text-anchor="middle"><tspan x="662" y="987">0:0:0:0:0:0:0:1</tspan></text><ellipse cx="778" cy="1101" fill="#F9E79F" rx="190" ry="20" stroke="#B7950B" stroke-width="2.0"/><text fill="#774400" font-decoration="none" font-family="Arial,Helvetica" font-size="18" font-weight="normal" text-anchor="middle"><tspan x="778" y="1107">2606:2800:220:1:248:1893:25c8:1946</tspan></text><ellipse cx="738" cy="1221" fill="#F9E79F" rx="150" ry="20" stroke="#B7950B" stroke-width="2.0"/><text fill="#774400" font-decoration="none" font-family="Arial,Helvetica" font-size="18" font-weight="normal" text-anchor="middle"><tspan x="737" y="1227">2001:4860:4860:0:0:0:0:8888</tspan></text><path d="M 438 1541 L 448 1551 L 438 1561 L 428 1551 Z" fill="#8B8B8B" stroke="#8B8B8B" stroke-width="2.0"/><text fill="#774400" font-decoration="none" font-family="Arial,Helvetica" font-size="0" font-weight="normal" text-anchor="middle"><tspan x="438" y="1549">profile</tspan></text><path d="M 518 1541 L 528 1551 L 518 1561 L 508 1551 Z" fill="#8B8B8B" stroke="#8B8B8B" stroke-width="2.0"/><text fill="#774400" font-decoration="none" font-family="Arial,Helvetica" font-size="0" font-weight="normal" text-anchor="middle"><tspan x="518" y="1549">profile_map</tspan></text><path d="M 598 1391 L 608 1401 L 598 1411 L 588 1401 Z" fill="#8B8B8B" stroke="#8B8B8B" stroke-width="2.0"/><text fill="#774400" font-decoration="none" font-family="Arial,Helvetica" font-size="0" font-weight="normal" text-anchor="middle"><tspan x="598" y="1399">name</tspan></text><path d="M 678 1391 L 688 1401 L 678 1411 L 668 1401 Z" fill="#8B8B8B" stroke="#8B8B8B" stroke-width="2.0"/><text fill="#774400" font-decoration="none" font-family="Arial,Helvetica" font-size="0" font-weight="normal" text-anchor="middle"><tspan x="678" y="1399">name_map</tspan></text><path d="M 758 1331 L 768 1341 L 758 1351 L 748 1341 Z" fill="#8B8B8B" stroke="#8B8B8B" stroke-width="2.0"/><text fill="#774400" font-decoration="none" font-family="Arial,Helvetica" font-size="0" font-weight="normal" text-anchor="middle"><tspan x="758" y="1339">surname</tspan></text><ellipse cx="858" cy="1341" fill="#F9E79F" rx="30" ry="20" stroke="#B7950B" stroke-width="2.0"/><text fill="#774400" font-decoration="none" font-family="Arial,Helvetica" font-size="18" font-weight="normal" text-anchor="middle"><tspan x="857" y="1347">Max</tspan></text><path d="M 758 1451 L 768 1461 L 758 1471 L 748 1461 Z" fill="#8B8B8B" stroke="#8B8B8B" stroke-width="2.0"/><text fill="#774400" font-decoration="none" font-family="Arial,Helvetica" font-size="0" font-weight="normal" text-anchor="middle"><tspan x="758" y="1459">lastname</tspan></text><ellipse cx="893" cy="1461" fill="#F9E79F" rx="60" ry="20" stroke="#B7950B" stroke-width="2.0"/><text fill="#774400" font-decoration="none" font-family="Arial,Helvetica" font-size="18" font-weight="normal" text-anchor="middle"><tspan x="892" y="1467">Mustermann</tspan></text><path d="M 598 1571 L 608 1581 L 598 1591 L 588 1581 Z" fill="#8B8B8B" stroke="#8B8B8B" stroke-width="2.0"/><text fill="#774400" font-decoration="none" font-family="Arial,Helvetica" font-size="0" font-weight="normal" text-anchor="middle"><tspan x="598" y="1579">email</tspan></text><ellipse cx="822" cy="1581" fill="#F9E79F" rx="150" ry="20" stroke="#B7950B" stroke-width="2.0"/><text fill="#774400" font-decoration="none" font-family="Arial,Helvetica" font-size="18" font-weight="normal" text-anchor="middle"><tspan x="821" y="1587">m.musterm@mail-example.com</tspan></text><path d="M 598 1691 L 608 1701 L 598 1711 L 588 1701 Z" fill="#8B8B8B" stroke="#8B8B8B" stroke-width="2.0"/><text fill="#774400" font-decoration="none" font-family="Arial,Helvetica" font-size="0" font-weight="normal" text-anchor="middle"><tspan x="598" y="1699">username</tspan></text><ellipse cx="702" cy="1701" fill="#F9E79F" rx="30" ry="20" stroke="#B7950B" stroke-width="2.0"/><text fill="#774400" font-decoration="none" font-family="Arial,Helvetica" font-size="18" font-weight="normal" text-anchor="middle"><tspan x="702" y="1707">maxm</tspan></text><g><path d="M 207.0 231.0 L 195.0 237.0 L 198.0 231.0 L 195.0 225.0 z" fill="#000000" stroke="#000000" stroke-width="2.0"/><path d="M 145.9825148343702 765.548975499423 L 148.0 765.1666666666666 L 168.0 765.1666666666666 L 168.0 231.0 L 208.0 231.0" fill="none" stroke="#000000" stroke-width="2.0"/></g><text fill="#446299" font-decoration="none" font-family="Arial,Helvetica" font-size="0" font-weight="normal" text-anchor="middle"><tspan x="168" y="487">CONTAINS</tspan></text><g><path d="M 347.0 231.0 L 335.0 237.0 L 338.0 231.0 L 335.0 225.0 z" fill="#000000" stroke="#000000" stroke-width="2.0"/><path d="M 288.0 231.0 L 288.0 231.0 L 308.0 231.0 L 308.0 231.0 L 348.0 231.0" fill="none" stroke="#000000" stroke-width="2.0"/></g><text fill="#446299" font-decoration="none" font-family="Arial,Helvetica" font-size="0" font-weight="normal" text-anchor="middle"><tspan x="318" y="229">CONTAINS</tspan></text><g><path d="M 207.0 441.0 L 195.0 447.0 L 198.0 441.0 L 195.0 435.0 z" fill="#000000" stroke="#000000" stroke-width="2.0"/><path d="M 145.99997654426681 778.5136987907928 L 148.0 778.5 L 172.0 778.5 L 172.0 441.0 L 208.0 441.0" fill="none" stroke="#000000" stroke-width="2.0"/></g><text fill="#446299" font-decoration="none" font-family="Arial,Helvetica" font-size="0" font-weight="normal" text-anchor="middle"><tspan x="172" y="603">CONTAINS</tspan></text><g><path d="M 207.0 1326.0 L 195.0 1332.0 L 198.0 1326.0 L 195.0 1320.0 z" fill="#000000" stroke="#000000" stroke-width="2.0"/><path d="M 145.98489653563462 791.479079984575 L 148.0 791.8333333333334 L 176.0 791.8333333333334 L 176.0 1326.0 L 208.0 1326.0" fill="none" stroke="#000000" stroke-width="2.0"/></g><text fill="#446299" font-decoration="none" font-family="Arial,Helvetica" font-size="0" font-weight="normal" text-anchor="middle"><tspan x="176" y="1057">CONTAINS</tspan></text><g><path d="M 327.0 441.0 L 315.0 447.0 L 318.0 441.0 L 315.0 435.0 z" fill="#000000" stroke="#000000" stroke-width="2.0"/><path d="M 268.0 441.0 L 268.0 441.0 L 288.0 441.0 L 288.0 441.0 L 328.0 441.0" fill="none" stroke="#000000" stroke-width="2.0"/></g><text fill="#446299" font-decoration="none" font-family="Arial,Helvetica" font-size="0" font-weight="normal" text-anchor="middle"><tspan x="298" y="439">CONTAINS</tspan></text><g><path d="M 407.0 441.0 L 395.0 447.0 L 398.0 441.0 L 395.0 435.0 z" fill="#000000" stroke="#000000" stroke-width="2.0"/><path d="M 348.0 441.0 L 348.0 441.0 L 368.0 441.0 L 368.0 441.0 L 408.0 441.0" fill="none" stroke="#000000" stroke-width="2.0"/></g><text fill="#446299" font-decoration="none" font-family="Arial,Helvetica" font-size="0" font-weight="normal" text-anchor="middle"><tspan x="378" y="439">CONTAINS</tspan></text><g><path d="M 487.0 441.0 L 475.0 447.0 L 478.0 441.0 L 475.0 435.0 z" fill="#000000" stroke="#000000" stroke-width="2.0"/><path d="M 428.0 441.0 L 428.0 441.0 L 448.0 441.0 L 448.0 441.0 L 488.0 441.0" fill="none" stroke="#000000" stroke-width="2.0"/></g><text fill="#446299" font-decoration="none" font-family="Arial,Helvetica" font-size="0" font-weight="normal" text-anchor="middle"><tspan x="458" y="439">CONTAINS</tspan></text><g><path d="M 567.0 141.0 L 555.0 147.0 L 558.0 141.0 L 555.0 135.0 z" fill="#000000" stroke="#000000" stroke-width="2.0"/><path d="M 508.0 434.3333333333333 L 508.0 434.3333333333333 L 528.0 434.3333333333333 L 528.0 141.0 L 568.0 141.0" fill="none" stroke="#000000" stroke-width="2.0"/></g><text fill="#446299" font-decoration="none" font-family="Arial,Helvetica" font-size="0" font-weight="normal" text-anchor="middle"><tspan x="528" y="275">CONTAINS</tspan></text><g><path d="M 647.0 21.0 L 635.0 27.0 L 638.0 21.0 L 635.0 15.0 z" fill="#000000" stroke="#000000" stroke-width="2.0"/><path d="M 588.0 134.33333333333334 L 588.0 134.33333333333334 L 608.0 134.33333333333334 L 608.0 21.0 L 648.0 21.0" fill="none" stroke="#000000" stroke-width="2.0"/></g><text fill="#446299" font-decoration="none" font-family="Arial,Helvetica" font-size="0" font-weight="normal" text-anchor="middle"><tspan x="608" y="65">CONTAINS</tspan></text><g><path d="M 730.0 21.000000000000018 L 718.0 27.000000000000014 L 721.0 21.000000000000014 L 718.0 15.000000000000014 z" fill="#B7950B" stroke="#B7950B" stroke-width="2.0"/><path d="M 668.0 21.0 L 668.0 21.0 L 688.0 21.0 L 688.0 21.0 L 731.0 21.000000000000018" fill="none" stroke="#B7950B" stroke-width="2.0"/></g><text fill="#B7950B" font-decoration="none" font-family="Arial,Helvetica" font-size="0" font-weight="normal" text-anchor="middle"><tspan x="699" y="19">VALUE</tspan></text><g><path d="M 647.0 141.0 L 635.0 147.0 L 638.0 141.0 L 635.0 135.0 z" fill="#000000" stroke="#000000" stroke-width="2.0"/><path d="M 588.0 141.0 L 588.0 141.0 L 612.0 141.0 L 612.0 141.0 L 648.0 141.0" fill="none" stroke="#000000" stroke-width="2.0"/></g><text fill="#446299" font-decoration="none" font-family="Arial,Helvetica" font-size="0" font-weight="normal" text-anchor="middle"><tspan x="618" y="139">CONTAINS</tspan></text><g><path d="M 727.0 141.00000000000003 L 715.0 147.00000000000003 L 718.0 141.00000000000003 L 715.0 135.00000000000003 z" fill="#B7950B" stroke="#B7950B" stroke-width="2.0"/><path d="M 668.0 141.0 L 668.0 141.0 L 688.0 141.0 L 688.0 141.0 L 728.0 141.00000000000003" fill="none" stroke="#B7950B" stroke-width="2.0"/></g><text fill="#B7950B" font-decoration="none" font-family="Arial,Helvetica" font-size="0" font-weight="normal" text-anchor="middle"><tspan x="698" y="139">VALUE</tspan></text><g><path d="M 647.0 261.0 L 635.0 267.0 L 638.0 261.0 L 635.0 255.0 z" fill="#000000" stroke="#000000" stroke-width="2.0"/><path d="M 588.0 147.66666666666666 L 588.0 147.66666666666666 L 616.0 147.66666666666666 L 616.0 261.0 L 648.0 261.0" fill="none" stroke="#000000" stroke-width="2.0"/></g><text fill="#446299" font-decoration="none" font-family="Arial,Helvetica" font-size="0" font-weight="normal" text-anchor="middle"><tspan x="616" y="204">CONTAINS</tspan></text><g><path d="M 729.0 261.0 L 717.0 267.0 L 720.0 261.0 L 717.0 255.0 z" fill="#B7950B" stroke="#B7950B" stroke-width="2.0"/><path d="M 668.0 261.0 L 668.0 261.0 L 688.0 261.0 L 688.0 261.0 L 730.0 261.0" fill="none" stroke="#B7950B" stroke-width="2.0"/></g><text fill="#B7950B" font-decoration="none" font-family="Arial,Helvetica" font-size="0" font-weight="normal" text-anchor="middle"><tspan x="699" y="259">VALUE</tspan></text><g><path d="M 567.0 441.0 L 555.0 447.0 L 558.0 441.0 L 555.0 435.0 z" fill="#000000" stroke="#000000" stroke-width="2.0"/><path d="M 508.0 441.0 L 508.0 441.0 L 532.0 441.0 L 532.0 441.0 L 568.0 441.0" fill="none" stroke="#000000" stroke-width="2.0"/></g><text fill="#446299" font-decoration="none" font-family="Arial,Helvetica" font-size="0" font-weight="normal" text-anchor="middle"><tspan x="538" y="439">CONTAINS</tspan></text><g><path d="M 647.0 381.0 L 635.0 387.0 L 638.0 381.0 L 635.0 375.0 z" fill="#000000" stroke="#000000" stroke-width="2.0"/><path d="M 588.0 436.0 L 588.0 436.0 L 608.0 436.0 L 608.0 381.0 L 648.0 381.0" fill="none" stroke="#000000" stroke-width="2.0"/></g><text fill="#446299" font-decoration="none" font-family="Arial,Helvetica" font-size="0" font-weight="normal" text-anchor="middle"><tspan x="608" y="396">CONTAINS</tspan></text><g><path d="M 730.0 381.0 L 718.0 387.0 L 721.0 381.0 L 718.0 375.0 z" fill="#B7950B" stroke="#B7950B" stroke-width="2.0"/><path d="M 668.0 381.0 L 668.0 381.0 L 688.0 381.0 L 688.0 381.0 L 731.0 381.0" fill="none" stroke="#B7950B" stroke-width="2.0"/></g><text fill="#B7950B" font-decoration="none" font-family="Arial,Helvetica" font-size="0" font-weight="normal" text-anchor="middle"><tspan x="699" y="379">VALUE</tspan></text><g><path d="M 647.0 501.0 L 635.0 507.0 L 638.0 501.0 L 635.0 495.0 z" fill="#000000" stroke="#000000" stroke-width="2.0"/><path d="M 588.0 446.0 L 588.0 446.0 L 612.0 446.0 L 612.0 501.0 L 648.0 501.0" fill="none" stroke="#000000" stroke-width="2.0"/></g><text fill="#446299" font-decoration="none" font-family="Arial,Helvetica" font-size="0" font-weight="normal" text-anchor="middle"><tspan x="612" y="477">CONTAINS</tspan></text><g><path d="M 727.0 501.0000000000002 L 715.0 507.00000000000017 L 718.0 501.00000000000017 L 715.0 495.00000000000017 z" fill="#B7950B" stroke="#B7950B" stroke-width="2.0"/><path d="M 668.0 501.0 L 668.0 501.0 L 688.0 501.0 L 688.0 501.0 L 728.0 501.0000000000002" fill="none" stroke="#B7950B" stroke-width="2.0"/></g><text fill="#B7950B" font-decoration="none" font-family="Arial,Helvetica" font-size="0" font-weight="normal" text-anchor="middle"><tspan x="698" y="499">VALUE</tspan></text><g><path d="M 567.0 741.0 L 555.0 747.0 L 558.0 741.0 L 555.0 735.0 z" fill="#000000" stroke="#000000" stroke-width="2.0"/><path d="M 508.0 447.6666666666667 L 508.0 447.6666666666667 L 536.0 447.6666666666667 L 536.0 741.0 L 568.0 741.0" fill="none" stroke="#000000" stroke-width="2.0"/></g><text fill="#446299" font-decoration="none" font-family="Arial,Helvetica" font-size="0" font-weight="normal" text-anchor="middle"><tspan x="536" y="594">CONTAINS</tspan></text><g><path d="M 647.0 621.0 L 635.0 627.0 L 638.0 621.0 L 635.0 615.0 z" fill="#000000" stroke="#000000" stroke-width="2.0"/><path d="M 588.0 734.3333333333334 L 588.0 734.3333333333334 L 608.0 734.3333333333334 L 608.0 621.0 L 648.0 621.0" fill="none" stroke="#000000" stroke-width="2.0"/></g><text fill="#446299" font-decoration="none" font-family="Arial,Helvetica" font-size="0" font-weight="normal" text-anchor="middle"><tspan x="608" y="665">CONTAINS</tspan></text><g><path d="M 730.0 621.0 L 718.0 627.0 L 721.0 621.0 L 718.0 615.0 z" fill="#B7950B" stroke="#B7950B" stroke-width="2.0"/><path d="M 668.0 621.0 L 668.0 621.0 L 688.0 621.0 L 688.0 621.0 L 731.0 621.0" fill="none" stroke="#B7950B" stroke-width="2.0"/></g><text fill="#B7950B" font-decoration="none" font-family="Arial,Helvetica" font-size="0" font-weight="normal" text-anchor="middle"><tspan x="699" y="619">VALUE</tspan></text><g><path d="M 647.0 741.0 L 635.0 747.0 L 638.0 741.0 L 635.0 735.0 z" fill="#000000" stroke="#000000" stroke-width="2.0"/><path d="M 588.0 741.0 L 588.0 741.0 L 612.0 741.0 L 612.0 741.0 L 648.0 741.0" fill="none" stroke="#000000" stroke-width="2.0"/></g><text fill="#446299" font-decoration="none" font-family="Arial,Helvetica" font-size="0" font-weight="normal" text-anchor="middle"><tspan x="618" y="739">CONTAINS</tspan></text><g><path d="M 727.0 741.0000000000001 L 715.0 747.0000000000001 L 718.0 741.0000000000001 L 715.0 735.0000000000001 z" fill="#B7950B" stroke="#B7950B" stroke-width="2.0"/><path d="M 668.0 741.0 L 668.0 741.0 L 688.0 741.0 L 688.0 741.0 L 728.0 741.0000000000001" fill="none" stroke="#B7950B" stroke-width="2.0"/></g><text fill="#B7950B" font-decoration="none" font-family="Arial,Helvetica" font-size="0" font-weight="normal" text-anchor="middle"><tspan x="698" y="739">VALUE</tspan></text><g><path d="M 647.0 861.0 L 635.0 867.0 L 638.0 861.0 L 635.0 855.0 z" fill="#000000" stroke="#000000" stroke-width="2.0"/><path d="M 588.0 747.6666666666666 L 588.0 747.6666666666666 L 616.0 747.6666666666666 L 616.0 861.0 L 648.0 861.0" fill="none" stroke="#000000" stroke-width="2.0"/></g><text fill="#446299" font-decoration="none" font-family="Arial,Helvetica" font-size="0" font-weight="normal" text-anchor="middle"><tspan x="616" y="804">CONTAINS</tspan></text><g><path d="M 727.0 861.0 L 715.0 867.0 L 718.0 861.0 L 715.0 855.0 z" fill="#B7950B" stroke="#B7950B" stroke-width="2.0"/><path d="M 668.0 861.0 L 668.0 861.0 L 688.0 861.0 L 688.0 861.0 L 728.0 861.0" fill="none" stroke="#B7950B" stroke-width="2.0"/></g><text fill="#B7950B" font-decoration="none" font-family="Arial,Helvetica" font-size="0" font-weight="normal" text-anchor="middle"><tspan x="698" y="859">VALUE</tspan></text><g><path d="M 347.0 1326.0 L 335.0 1332.0 L 338.0 1326.0 L 335.0 1320.0 z" fill="#000000" stroke="#000000" stroke-width="2.0"/><path d="M 288.0 1326.0 L 288.0 1326.0 L 308.0 1326.0 L 308.0 1326.0 L 348.0 1326.0" fill="none" stroke="#000000" stroke-width="2.0"/></g><text fill="#446299" font-decoration="none" font-family="Arial,Helvetica" font-size="0" font-weight="normal" text-anchor="middle"><tspan x="318" y="1324">CONTAINS</tspan></text><g><path d="M 427.0 1101.0 L 415.0 1107.0 L 418.0 1101.0 L 415.0 1095.0 z" fill="#000000" stroke="#000000" stroke-width="2.0"/><path d="M 368.0 1321.0 L 368.0 1321.0 L 388.0 1321.0 L 388.0 1101.0 L 428.0 1101.0" fill="none" stroke="#000000" stroke-width="2.0"/></g><text fill="#446299" font-decoration="none" font-family="Arial,Helvetica" font-size="0" font-weight="normal" text-anchor="middle"><tspan x="388" y="1199">CONTAINS</tspan></text><g><path d="M 507.0 1101.0 L 495.0 1107.0 L 498.0 1101.0 L 495.0 1095.0 z" fill="#000000" stroke="#000000" stroke-width="2.0"/><path d="M 448.0 1101.0 L 448.0 1101.0 L 468.0 1101.0 L 468.0 1101.0 L 508.0 1101.0" fill="none" stroke="#000000" stroke-width="2.0"/></g><text fill="#446299" font-decoration="none" font-family="Arial,Helvetica" font-size="0" font-weight="normal" text-anchor="middle"><tspan x="478" y="1099">CONTAINS</tspan></text><g><path d="M 592.0 981.0 L 580.0 987.0 L 583.0 981.0 L 580.0 975.0 z" fill="#B7950B" stroke="#B7950B" stroke-width="2.0"/><path d="M 528.0 1094.3333333333333 L 528.0 1094.3333333333333 L 548.0 1094.3333333333333 L 548.0 981.0 L 593.0 981.0" fill="none" stroke="#B7950B" stroke-width="2.0"/></g><text fill="#B7950B" font-decoration="none" font-family="Arial,Helvetica" font-size="0" font-weight="normal" text-anchor="middle"><tspan x="548" y="1023">VALUE</tspan></text><g><path d="M 587.0 1101.0 L 575.0 1107.0 L 578.0 1101.0 L 575.0 1095.0 z" fill="#B7950B" stroke="#B7950B" stroke-width="2.0"/><path d="M 528.0 1101.0 L 528.0 1101.0 L 552.0 1101.0 L 552.0 1101.0 L 588.0 1101.0" fill="none" stroke="#B7950B" stroke-width="2.0"/></g><text fill="#B7950B" font-decoration="none" font-family="Arial,Helvetica" font-size="0" font-weight="normal" text-anchor="middle"><tspan x="558" y="1099">VALUE</tspan></text><g><path d="M 587.0 1221.0 L 575.0 1227.0 L 578.0 1221.0 L 575.0 1215.0 z" fill="#B7950B" stroke="#B7950B" stroke-width="2.0"/><path d="M 528.0 1107.6666666666667 L 528.0 1107.6666666666667 L 556.0 1107.6666666666667 L 556.0 1221.0 L 588.0 1221.0" fill="none" stroke="#B7950B" stroke-width="2.0"/></g><text fill="#B7950B" font-decoration="none" font-family="Arial,Helvetica" font-size="0" font-weight="normal" text-anchor="middle"><tspan x="556" y="1164">VALUE</tspan></text><g><path d="M 427.0 1551.0 L 415.0 1557.0 L 418.0 1551.0 L 415.0 1545.0 z" fill="#000000" stroke="#000000" stroke-width="2.0"/><path d="M 368.0 1331.0 L 368.0 1331.0 L 392.0 1331.0 L 392.0 1551.0 L 428.0 1551.0" fill="none" stroke="#000000" stroke-width="2.0"/></g><text fill="#446299" font-decoration="none" font-family="Arial,Helvetica" font-size="0" font-weight="normal" text-anchor="middle"><tspan x="392" y="1445">CONTAINS</tspan></text><g><path d="M 507.0 1551.0 L 495.0 1557.0 L 498.0 1551.0 L 495.0 1545.0 z" fill="#000000" stroke="#000000" stroke-width="2.0"/><path d="M 448.0 1551.0 L 448.0 1551.0 L 468.0 1551.0 L 468.0 1551.0 L 508.0 1551.0" fill="none" stroke="#000000" stroke-width="2.0"/></g><text fill="#446299" font-decoration="none" font-family="Arial,Helvetica" font-size="0" font-weight="normal" text-anchor="middle"><tspan x="478" y="1549">CONTAINS</tspan></text><g><path d="M 587.0 1401.0 L 575.0 1407.0 L 578.0 1401.0 L 575.0 1395.0 z" fill="#000000" stroke="#000000" stroke-width="2.0"/><path d="M 528.0 1544.3333333333333 L 528.0 1544.3333333333333 L 548.0 1544.3333333333333 L 548.0 1401.0 L 588.0 1401.0" fill="none" stroke="#000000" stroke-width="2.0"/></g><text fill="#446299" font-decoration="none" font-family="Arial,Helvetica" font-size="0" font-weight="normal" text-anchor="middle"><tspan x="548" y="1460">CONTAINS</tspan></text><g><path d="M 667.0 1401.0 L 655.0 1407.0 L 658.0 1401.0 L 655.0 1395.0 z" fill="#000000" stroke="#000000" stroke-width="2.0"/><path d="M 608.0 1401.0 L 608.0 1401.0 L 628.0 1401.0 L 628.0 1401.0 L 668.0 1401.0" fill="none" stroke="#000000" stroke-width="2.0"/></g><text fill="#446299" font-decoration="none" font-family="Arial,Helvetica" font-size="0" font-weight="normal" text-anchor="middle"><tspan x="638" y="1399">CONTAINS</tspan></text><g><path d="M 747.0 1341.0 L 735.0 1347.0 L 738.0 1341.0 L 735.0 1335.0 z" fill="#000000" stroke="#000000" stroke-width="2.0"/><path d="M 688.0 1396.0 L 688.0 1396.0 L 708.0 1396.0 L 708.0 1341.0 L 748.0 1341.0" fill="none" stroke="#000000" stroke-width="2.0"/></g><text fill="#446299" font-decoration="none" font-family="Arial,Helvetica" font-size="0" font-weight="normal" text-anchor="middle"><tspan x="708" y="1356">CONTAINS</tspan></text><g><path d="M 827.0 1341.0 L 815.0 1347.0 L 818.0 1341.0 L 815.0 1335.0 z" fill="#B7950B" stroke="#B7950B" stroke-width="2.0"/><path d="M 768.0 1341.0 L 768.0 1341.0 L 788.0 1341.0 L 788.0 1341.0 L 828.0 1341.0" fill="none" stroke="#B7950B" stroke-width="2.0"/></g><text fill="#B7950B" font-decoration="none" font-family="Arial,Helvetica" font-size="0" font-weight="normal" text-anchor="middle"><tspan x="798" y="1339">VALUE</tspan></text><g><path d="M 747.0 1461.0 L 735.0 1467.0 L 738.0 1461.0 L 735.0 1455.0 z" fill="#000000" stroke="#000000" stroke-width="2.0"/><path d="M 688.0 1406.0 L 688.0 1406.0 L 712.0 1406.0 L 712.0 1461.0 L 748.0 1461.0" fill="none" stroke="#000000" stroke-width="2.0"/></g><text fill="#446299" font-decoration="none" font-family="Arial,Helvetica" font-size="0" font-weight="normal" text-anchor="middle"><tspan x="712" y="1437">CONTAINS</tspan></text><g><path d="M 832.0 1461.0 L 820.0 1467.0 L 823.0 1461.0 L 820.0 1455.0 z" fill="#B7950B" stroke="#B7950B" stroke-width="2.0"/><path d="M 768.0 1461.0 L 768.0 1461.0 L 788.0 1461.0 L 788.0 1461.0 L 833.0 1461.0" fill="none" stroke="#B7950B" stroke-width="2.0"/></g><text fill="#B7950B" font-decoration="none" font-family="Arial,Helvetica" font-size="0" font-weight="normal" text-anchor="middle"><tspan x="800" y="1459">VALUE</tspan></text><g><path d="M 587.0 1581.0 L 575.0 1587.0 L 578.0 1581.0 L 575.0 1575.0 z" fill="#000000" stroke="#000000" stroke-width="2.0"/><path d="M 528.0 1551.0 L 528.0 1551.0 L 552.0 1551.0 L 552.0 1581.0 L 588.0 1581.0" fill="none" stroke="#000000" stroke-width="2.0"/></g><text fill="#446299" font-decoration="none" font-family="Arial,Helvetica" font-size="0" font-weight="normal" text-anchor="middle"><tspan x="552" y="1570">CONTAINS</tspan></text><g><path d="M 671.0 1581.0 L 659.0 1587.0 L 662.0 1581.0 L 659.0 1575.0 z" fill="#B7950B" stroke="#B7950B" stroke-width="2.0"/><path d="M 608.0 1581.0 L 608.0 1581.0 L 628.0 1581.0 L 628.0 1581.0 L 672.0 1581.0" fill="none" stroke="#B7950B" stroke-width="2.0"/></g><text fill="#B7950B" font-decoration="none" font-family="Arial,Helvetica" font-size="0" font-weight="normal" text-anchor="middle"><tspan x="640" y="1579">VALUE</tspan></text><g><path d="M 587.0 1701.0 L 575.0 1707.0 L 578.0 1701.0 L 575.0 1695.0 z" fill="#000000" stroke="#000000" stroke-width="2.0"/><path d="M 528.0 1557.6666666666667 L 528.0 1557.6666666666667 L 556.0 1557.6666666666667 L 556.0 1701.0 L 588.0 1701.0" fill="none" stroke="#000000" stroke-width="2.0"/></g><text fill="#446299" font-decoration="none" font-family="Arial,Helvetica" font-size="0" font-weight="normal" text-anchor="middle"><tspan x="556" y="1629">CONTAINS</tspan></text><g><path d="M 671.0 1701.0 L 659.0 1707.0 L 662.0 1701.0 L 659.0 1695.0 z" fill="#B7950B" stroke="#B7950B" stroke-width="2.0"/><path d="M 608.0 1701.0 L 608.0 1701.0 L 628.0 1701.0 L 628.0 1701.0 L 672.0 1701.0" fill="none" stroke="#B7950B" stroke-width="2.0"/></g><text fill="#B7950B" font-decoration="none" font-family="Arial,Helvetica" font-size="0" font-weight="normal" text-anchor="middle"><tspan x="640" y="1699">VALUE</tspan></text></svg>