<?xml version="1.0" encoding="UTF-8"?><svg xmlns="http://www.w3.org/2000/svg" xmlns:xlink="http://www.w3.org/1999/xlink" height="779" version="1.1" viewBox="0 0 1105 779" width="1105"><path d="M 647 380 L 657 390 L 647 400 L 637 390 Z" fill="#8B8B8B" stroke="#8B8B8B" stroke-width="2.0"/><text fill="#774400" font-decoration="none" font-family="Arial,Helvetica" font-size="0" font-weight="normal" text-anchor="middle"><tspan x="647" y="388">personal_graph</tspan></text><rect fill="#AED6F1" height="40" stroke="#2980B9" stroke-width="2.0" width="80" x="516" y="382"/><text fill="#774400" font-decoration="none" font-family="Arial,Helvetica" font-size="22" font-weight="normal" text-anchor="middle"><tspan x="555" y="410">minimal</tspan></text><rect fill="#AED6F1" height="40" stroke="#2980B9" stroke-width="2.0" width="80" x="520" y="251"/><text fill="#774400" font-decoration="none" font-family="Arial,Helvetica" font-size="22" font-weight="normal" text-anchor="middle"><tspan x="560" y="279">csvtest</tspan></text><rect fill="#AED6F1" height="40" stroke="#2980B9" stroke-width="2.0" width="80" x="434" y="479"/><text fill="#774400" font-decoration="none" font-family="Arial,Helvetica" font-size="22" font-weight="normal" text-anchor="middle"><tspan x="474" y="507">jsontest</tspan></text><path d="M 682 240 L 692 250 L 682 260 L 672 250 Z" fill="#8B8B8B" stroke="#8B8B8B" stroke-width="2.0"/><text fill="#774400" font-decoration="none" font-family="Arial,Helvetica" font-size="0" font-weight="normal" text-anchor="middle"><tspan x="682" y="248">rows</tspan></text><path d="M 468 211 L 478 221 L 468 231 L 458 221 Z" fill="#8B8B8B" stroke="#8B8B8B" stroke-width="2.0"/><text fill="#774400" font-decoration="none" font-family="Arial,Helvetica" font-size="0" font-weight="normal" text-anchor="middle"><tspan x="468" y="219">cols</tspan></text><path d="M 803 260 L 813 270 L 803 280 L 793 270 Z" fill="#8B8B8B" stroke="#8B8B8B" stroke-width="2.0"/><text fill="#774400" font-decoration="none" font-family="Arial,Helvetica" font-size="0" font-weight="normal" text-anchor="middle"><tspan x="803" y="268">C:\Users\b1107336\Documents\Code\sarp-graph\submitted\validation\minimal\csvtest.csv_rows_1</tspan></text><path d="M 853 55 L 863 65 L 853 75 L 843 65 Z" fill="#8B8B8B" stroke="#8B8B8B" stroke-width="2.0"/><text fill="#774400" font-decoration="none" font-family="Arial,Helvetica" font-size="0" font-weight="normal" text-anchor="middle"><tspan x="853" y="63">Col1</tspan></text><ellipse cx="1082" cy="21" fill="#F9E79F" rx="20" ry="20" stroke="#B7950B" stroke-width="2.0"/><text fill="#774400" font-decoration="none" font-family="Arial,Helvetica" font-size="18" font-weight="normal" text-anchor="middle"><tspan x="1082" y="27">100</tspan></text><path d="M 310 555 L 320 565 L 310 575 L 300 565 Z" fill="#8B8B8B" stroke="#8B8B8B" stroke-width="2.0"/><text fill="#774400" font-decoration="none" font-family="Arial,Helvetica" font-size="0" font-weight="normal" text-anchor="middle"><tspan x="310" y="563">Col2</tspan></text><ellipse cx="593" cy="535" fill="#F9E79F" rx="20" ry="20" stroke="#B7950B" stroke-width="2.0"/><text fill="#774400" font-decoration="none" font-family="Arial,Helvetica" font-size="18" font-weight="normal" text-anchor="middle"><tspan x="593" y="542">99</tspan></text><path d="M 375 493 L 385 503 L 375 513 L 365 503 Z" fill="#8B8B8B" stroke="#8B8B8B" stroke-width="2.0"/><text fill="#774400" font-decoration="none" font-family="Arial,Helvetica" font-size="0" font-weight="normal" text-anchor="middle"><tspan x="375" y="501">jsontest_map</tspan></text><path d="M 411 415 L 421 425 L 411 435 L 401 425 Z" fill="#8B8B8B" stroke="#8B8B8B" stroke-width="2.0"/><text fill="#774400" font-decoration="none" font-family="Arial,Helvetica" font-size="0" font-weight="normal" text-anchor="middle"><tspan x="411" y="423">reference</tspan></text><ellipse cx="463" cy="354" fill="#F9E79F" rx="130" ry="20" stroke="#B7950B" stroke-width="2.0"/><text fill="#774400" font-decoration="none" font-family="Arial,Helvetica" font-size="18" font-weight="normal" text-anchor="middle"><tspan x="463" y="361">/demo/minimal/csvtest.csv</tspan></text><path d="M 201 555 L 211 565 L 201 575 L 191 565 Z" fill="#8B8B8B" stroke="#8B8B8B" stroke-width="2.0"/><text fill="#774400" font-decoration="none" font-family="Arial,Helvetica" font-size="0" font-weight="normal" text-anchor="middle"><tspan x="201" y="563">testkey</tspan></text><path d="M 122 643 L 132 653 L 122 663 L 112 653 Z" fill="#8B8B8B" stroke="#8B8B8B" stroke-width="2.0"/><text fill="#774400" font-decoration="none" font-family="Arial,Helvetica" font-size="0" font-weight="normal" text-anchor="middle"><tspan x="122" y="651">list</tspan></text><ellipse cx="21" cy="639" fill="#F9E79F" rx="20" ry="20" stroke="#B7950B" stroke-width="2.0"/><text fill="#774400" font-decoration="none" font-family="Arial,Helvetica" font-size="18" font-weight="normal" text-anchor="middle"><tspan x="21" y="646">42</tspan></text><ellipse cx="121" cy="757" fill="#F9E79F" rx="20" ry="20" stroke="#B7950B" stroke-width="2.0"/><text fill="#774400" font-decoration="none" font-family="Arial,Helvetica" font-size="18" font-weight="normal" text-anchor="middle"><tspan x="121" y="763">44</tspan></text><g><path d="M 560.2080588176353 291.99928218220515 L 565.7491561265359 304.2179662608322 L 559.8671119793876 300.99282182205155 L 553.7577699400741 303.7633704765019 z" fill="#000000" stroke="#000000" stroke-width="2.0"/><path d="M 556.7960868748247 382.00071781779485 L 560.2459417996629 291.0" fill="none" stroke="#000000" stroke-width="2.0"/></g><text fill="#446299" font-decoration="none" font-family="Arial,Helvetica" font-size="0" font-weight="normal" text-anchor="middle"><tspan x="558" y="335">CONTAINS</tspan></text><g><path d="M 492.46952512300464 478.23595950602316 L 495.62730164976495 465.1964638329904 L 498.2760397409707 471.3595950602316 L 504.7957875774871 472.93848332361176 z" fill="#000000" stroke="#000000" stroke-width="2.0"/><path d="M 538.4665045596726 423.76404049397684 L 491.8243568321195 479.0" fill="none" stroke="#000000" stroke-width="2.0"/></g><text fill="#446299" font-decoration="none" font-family="Arial,Helvetica" font-size="0" font-weight="normal" text-anchor="middle"><tspan x="515" y="449">CONTAINS</tspan></text><g><path d="M 671.0133725643865 252.8256932497493 L 660.1517937031524 260.7013585956863 L 662.133725643865 254.2926187989413 L 658.1958929708965 248.86182936832427 z" fill="#000000" stroke="#000000" stroke-width="2.0"/><path d="M 601.9866274356135 264.2289727847665 L 672.0 252.6627015220613" fill="none" stroke="#000000" stroke-width="2.0"/></g><text fill="#446299" font-decoration="none" font-family="Arial,Helvetica" font-size="0" font-weight="normal" text-anchor="middle"><tspan x="636" y="256">MAPS_TO</tspan></text><g><path d="M 479.8826952303838 227.81324439951914 L 493.29471327581103 228.1564235788599 L 487.8269523038379 232.04275732075178 L 487.65536271416755 238.7487663434654 z" fill="#000000" stroke="#000000" stroke-width="2.0"/><path d="M 522.5514799505305 250.53005411986305 L 479.0 227.3432985193822" fill="none" stroke="#000000" stroke-width="2.0"/></g><text fill="#446299" font-decoration="none" font-family="Arial,Helvetica" font-size="0" font-weight="normal" text-anchor="middle"><tspan x="501" y="237">MAPS_TO</tspan></text><g><path d="M 792.0120582834372 268.2406459636463 L 779.2278002430863 272.31038137982796 L 783.1205828343722 266.84720980125 L 781.0857151262813 260.45508078107457 z" fill="#000000" stroke="#000000" stroke-width="2.0"/><path d="M 692.9879417165628 252.7219858982763 L 793.0 268.3954722039125" fill="none" stroke="#000000" stroke-width="2.0"/></g><text fill="#446299" font-decoration="none" font-family="Arial,Helvetica" font-size="0" font-weight="normal" text-anchor="middle"><tspan x="742" y="258">CONTAINS</tspan></text><g><path d="M 842.0743827785507 69.45949415465029 L 833.2377423655868 79.55472997220171 L 833.7438277855069 72.86564352129197 L 828.6962098767311 68.44732331481002 z" fill="#000000" stroke="#000000" stroke-width="2.0"/><path d="M 479.92561722144933 217.53279652915276 L 843.0 69.08103311391233" fill="none" stroke="#000000" stroke-width="2.0"/></g><text fill="#446299" font-decoration="none" font-family="Arial,Helvetica" font-size="0" font-weight="normal" text-anchor="middle"><tspan x="661" y="141">CONTAINS</tspan></text><g><path d="M 1062.2526772780675 39.49268063461818 L 1057.271572099221 51.950151934896915 L 1055.5267727806759 45.47283186113147 L 1049.2980371305366 42.9822792717082 z" fill="#B7950B" stroke="#B7950B" stroke-width="2.0"/><path d="M 813.7473227219324 260.4443164213492 L 1063.0 38.82821938722782" fill="none" stroke="#B7950B" stroke-width="2.0"/></g><text fill="#B7950B" font-decoration="none" font-family="Arial,Helvetica" font-size="0" font-weight="normal" text-anchor="middle"><tspan x="938" y="147">VALUE</tspan></text><g><path d="M 1062.0177806812353 25.049261600266526 L 1051.3575713142977 33.195422429335316 L 1053.1778068123522 26.7388952876265 L 1049.1047263978176 21.408790604157673 z" fill="#B7950B" stroke="#B7950B" stroke-width="2.0"/><path d="M 863.9822193187648 62.90090694857404 L 1063.0 24.861524523893195" fill="none" stroke="#B7950B" stroke-width="2.0"/></g><text fill="#B7950B" font-decoration="none" font-family="Arial,Helvetica" font-size="0" font-weight="normal" text-anchor="middle"><tspan x="963" y="41">VALUE</tspan></text><g><path d="M 315.99858300643007 555.0912812200611 L 315.55517697136764 541.6822025385084 L 319.7552629898584 546.9128122006108 L 326.4598023306348 546.6911091830796 z" fill="#000000" stroke="#000000" stroke-width="2.0"/><path d="M 463.9892130925747 232.90871877993894 L 315.58117411938247 556.0" fill="none" stroke="#000000" stroke-width="2.0"/></g><text fill="#446299" font-decoration="none" font-family="Arial,Helvetica" font-size="0" font-weight="normal" text-anchor="middle"><tspan x="389" y="392">CONTAINS</tspan></text><g><path d="M 610.3763573887628 515.2136128108946 L 613.0708412250932 502.07056305614765 L 615.9359626169851 508.1361281089455 L 622.5074874943585 509.4833700271107 z" fill="#B7950B" stroke="#B7950B" stroke-width="2.0"/><path d="M 794.5269255765869 280.7863871891054 L 609.7586234745158 516.0" fill="none" stroke="#B7950B" stroke-width="2.0"/></g><text fill="#B7950B" font-decoration="none" font-family="Arial,Helvetica" font-size="0" font-weight="normal" text-anchor="middle"><tspan x="702" y="396">VALUE</tspan></text><g><path d="M 573.0055828641332 538.1978441303523 L 561.7056997781127 545.4305920343145 L 564.0558286413323 539.1475279469234 L 560.4394546893512 533.4975864039131 z" fill="#B7950B" stroke="#B7950B" stroke-width="2.0"/><path d="M 321.9944171358668 564.8333511997497 L 574.0 538.0923237062889" fill="none" stroke="#B7950B" stroke-width="2.0"/></g><text fill="#B7950B" font-decoration="none" font-family="Arial,Helvetica" font-size="0" font-weight="normal" text-anchor="middle"><tspan x="447" y="549">VALUE</tspan></text><g><path d="M 385.99873212899814 503.4860282433612 L 397.6814765502317 496.8895532158836 L 394.9873212899816 503.03296655324476 L 398.2855588037204 508.87433876386154 z" fill="#000000" stroke="#000000" stroke-width="2.0"/><path d="M 434.00126787100186 501.06650393496926 L 385.0 503.5363684311519" fill="none" stroke="#000000" stroke-width="2.0"/></g><text fill="#446299" font-decoration="none" font-family="Arial,Helvetica" font-size="0" font-weight="normal" text-anchor="middle"><tspan x="410" y="500">CONTAINS</tspan></text><g><path d="M 406.86877925644797 436.9032887664036 L 407.14011460461535 450.3169525883739 L 403.0074813187573 445.03288766403597 L 396.30064940777214 445.1685553381197 z" fill="#000000" stroke="#000000" stroke-width="2.0"/><path d="M 380.17871139251645 493.0967112335964 L 407.2978123606358 436.0" fill="none" stroke="#000000" stroke-width="2.0"/></g><text fill="#446299" font-decoration="none" font-family="Arial,Helvetica" font-size="0" font-weight="normal" text-anchor="middle"><tspan x="393" y="463">CONTAINS</tspan></text><g><path d="M 448.62795321721546 375.8077817566366 L 446.40086377424643 389.0380528276697 L 443.3226182301241 383.07781756636575 L 436.7074826946075 381.96427284488124 z" fill="#B7950B" stroke="#B7950B" stroke-width="2.0"/><path d="M 419.8870179166927 415.1922182433634 L 449.21743488244783 375.0" fill="none" stroke="#B7950B" stroke-width="2.0"/></g><text fill="#B7950B" font-decoration="none" font-family="Arial,Helvetica" font-size="0" font-weight="normal" text-anchor="middle"><tspan x="434" y="393">VALUE</tspan></text><g><path d="M 211.9419803614422 562.1045632569005 L 221.2317367663757 552.4246652235017 L 220.41980361442194 559.0835513583413 L 225.2597526311213 563.7284295608081 z" fill="#000000" stroke="#000000" stroke-width="2.0"/><path d="M 364.0580196385578 507.89909672321846 L 211.0 562.4402312456293" fill="none" stroke="#000000" stroke-width="2.0"/></g><text fill="#446299" font-decoration="none" font-family="Arial,Helvetica" font-size="0" font-weight="normal" text-anchor="middle"><tspan x="288" y="533">CONTAINS</tspan></text><g><path d="M 132.547416345759 643.2515550311417 L 136.01510933642018 630.2910340029376 L 138.51618844861693 636.5155503114177 L 144.99644896271892 638.2493968067482 z" fill="#000000" stroke="#000000" stroke-width="2.0"/><path d="M 191.47580559268758 576.7484449688583 L 131.88421944544143 644.0" fill="none" stroke="#000000" stroke-width="2.0"/></g><text fill="#446299" font-decoration="none" font-family="Arial,Helvetica" font-size="0" font-weight="normal" text-anchor="middle"><tspan x="162" y="608">CONTAINS</tspan></text><g><path d="M 41.99064608067565 642.8413802265816 L 54.69713731117934 638.5349802673194 L 50.9064608067565 644.0694876201754 L 53.05966078638757 650.4227332354272 z" fill="#B7950B" stroke="#B7950B" stroke-width="2.0"/><path d="M 112.00935391932435 652.4860953118994 L 41.0 642.7049238495156" fill="none" stroke="#B7950B" stroke-width="2.0"/></g><text fill="#B7950B" font-decoration="none" font-family="Arial,Helvetica" font-size="0" font-weight="normal" text-anchor="middle"><tspan x="77" y="645">VALUE</tspan></text><g><path d="M 121.31498573275888 736.0002110618387 L 115.5627868777707 723.8794764169143 L 121.49988681324332 727.0021106183876 L 127.56025413570556 724.1260111908935 z" fill="#B7950B" stroke="#B7950B" stroke-width="2.0"/><path d="M 122.77396641962974 664.9997889381613 L 121.29444116826062 737.0" fill="none" stroke="#B7950B" stroke-width="2.0"/></g><text fill="#B7950B" font-decoration="none" font-family="Arial,Helvetica" font-size="0" font-weight="normal" text-anchor="middle"><tspan x="122" y="698">VALUE</tspan></text><g><path d="M 596.9920784521238 397.45877053145284 L 608.1433008225664 389.9988617086226 L 605.9207845212384 396.3281919488875 L 609.6507389326536 401.9038031341088 z" fill="#000000" stroke="#000000" stroke-width="2.0"/><path d="M 637.0079215478762 392.3918487605764 L 596.0 397.5843903739601" fill="none" stroke="#000000" stroke-width="2.0"/></g><text fill="#446299" font-decoration="none" font-family="Arial,Helvetica" font-size="0" font-weight="normal" text-anchor="middle"><tspan x="617" y="392">CONTAINS</tspan></text></svg>
