<?xml version="1.0" encoding="UTF-8"?><svg xmlns="http://www.w3.org/2000/svg" xmlns:xlink="http://www.w3.org/1999/xlink" height="2879" version="1.1" viewBox="0 0 3749 2879" width="3749"><rect fill="#AED6F1" height="40" stroke="#2980B9" stroke-width="2.0" width="140" x="1" y="1188"/><text fill="#774400" font-decoration="none" font-family="Arial,Helvetica" font-size="22" font-weight="normal" text-anchor="middle"><tspan x="71" y="1216">exampleCSV</tspan></text><rect fill="#AED6F1" height="40" stroke="#2980B9" stroke-width="2.0" width="100" x="201" y="1"/><text fill="#774400" font-decoration="none" font-family="Arial,Helvetica" font-size="22" font-weight="normal" text-anchor="middle"><tspan x="251" y="29">example</tspan></text><rect fill="#AED6F1" height="40" stroke="#2980B9" stroke-width="2.0" width="140" x="203" y="166"/><text fill="#774400" font-decoration="none" font-family="Arial,Helvetica" font-size="22" font-weight="normal" text-anchor="middle"><tspan x="272" y="194">ip_addresses</tspan></text><rect fill="#AED6F1" height="40" stroke="#2980B9" stroke-width="2.0" width="60" x="204" y="1216"/><text fill="#774400" font-decoration="none" font-family="Arial,Helvetica" font-size="22" font-weight="normal" text-anchor="middle"><tspan x="233" y="1244">posts</tspan></text><rect fill="#AED6F1" height="40" stroke="#2980B9" stroke-width="2.0" width="180" x="206" y="2375"/><text fill="#774400" font-decoration="none" font-family="Arial,Helvetica" font-size="22" font-weight="normal" text-anchor="middle"><tspan x="296" y="2403">profile_information</tspan></text><path d="M 415 91 L 425 101 L 415 111 L 405 101 Z" fill="#8B8B8B" stroke="#8B8B8B" stroke-width="2.0"/><text fill="#774400" font-decoration="none" font-family="Arial,Helvetica" font-size="0" font-weight="normal" text-anchor="middle"><tspan x="415" y="99">rows</tspan></text><path d="M 415 261 L 425 271 L 415 281 L 405 271 Z" fill="#8B8B8B" stroke="#8B8B8B" stroke-width="2.0"/><text fill="#774400" font-decoration="none" font-family="Arial,Helvetica" font-size="0" font-weight="normal" text-anchor="middle"><tspan x="415" y="269">cols</tspan></text><path d="M 495 31 L 505 41 L 495 51 L 485 41 Z" fill="#8B8B8B" stroke="#8B8B8B" stroke-width="2.0"/><text fill="#774400" font-decoration="none" font-family="Arial,Helvetica" font-size="0" font-weight="normal" text-anchor="middle"><tspan x="495" y="39">C:\Users\b1107336\Documents\Code\sarp-graph\sar-graph\validation\application\exampleCSV\ip_addresses.csv_rows_1</tspan></text><path d="M 495 261 L 505 271 L 495 281 L 485 271 Z" fill="#8B8B8B" stroke="#8B8B8B" stroke-width="2.0"/><text fill="#774400" font-decoration="none" font-family="Arial,Helvetica" font-size="0" font-weight="normal" text-anchor="middle"><tspan x="495" y="269">﻿0:0:0:0:0:0:0:1</tspan></text><ellipse cx="755" cy="41" fill="#F9E79F" rx="190" ry="20" stroke="#B7950B" stroke-width="2.0"/><text fill="#774400" font-decoration="none" font-family="Arial,Helvetica" font-size="18" font-weight="normal" text-anchor="middle"><tspan x="755" y="47">2606:2800:220:1:248:1893:25c8:1946</tspan></text><path d="M 495 151 L 505 161 L 495 171 L 485 161 Z" fill="#8B8B8B" stroke="#8B8B8B" stroke-width="2.0"/><text fill="#774400" font-decoration="none" font-family="Arial,Helvetica" font-size="0" font-weight="normal" text-anchor="middle"><tspan x="495" y="159">C:\Users\b1107336\Documents\Code\sarp-graph\sar-graph\validation\application\exampleCSV\ip_addresses.csv_rows_2</tspan></text><ellipse cx="715" cy="161" fill="#F9E79F" rx="150" ry="20" stroke="#B7950B" stroke-width="2.0"/><text fill="#774400" font-decoration="none" font-family="Arial,Helvetica" font-size="18" font-weight="normal" text-anchor="middle"><tspan x="714" y="167">2001:4860:4860:0:0:0:0:8888</tspan></text><path d="M 337 871 L 347 881 L 337 891 L 327 881 Z" fill="#8B8B8B" stroke="#8B8B8B" stroke-width="2.0"/><text fill="#774400" font-decoration="none" font-family="Arial,Helvetica" font-size="0" font-weight="normal" text-anchor="middle"><tspan x="337" y="879">rows</tspan></text><path d="M 337 1581 L 347 1591 L 337 1601 L 327 1591 Z" fill="#8B8B8B" stroke="#8B8B8B" stroke-width="2.0"/><text fill="#774400" font-decoration="none" font-family="Arial,Helvetica" font-size="0" font-weight="normal" text-anchor="middle"><tspan x="337" y="1589">cols</tspan></text><path d="M 417 491 L 427 501 L 417 511 L 407 501 Z" fill="#8B8B8B" stroke="#8B8B8B" stroke-width="2.0"/><text fill="#774400" font-decoration="none" font-family="Arial,Helvetica" font-size="0" font-weight="normal" text-anchor="middle"><tspan x="417" y="499">C:\Users\b1107336\Documents\Code\sarp-graph\sar-graph\validation\application\exampleCSV\posts.csv_rows_1</tspan></text><path d="M 417 1481 L 427 1491 L 417 1501 L 407 1491 Z" fill="#8B8B8B" stroke="#8B8B8B" stroke-width="2.0"/><text fill="#774400" font-decoration="none" font-family="Arial,Helvetica" font-size="0" font-weight="normal" text-anchor="middle"><tspan x="417" y="1489">﻿date</tspan></text><ellipse cx="630" cy="381" fill="#F9E79F" rx="140" ry="20" stroke="#B7950B" stroke-width="2.0"/><text fill="#774400" font-decoration="none" font-family="Arial,Helvetica" font-size="18" font-weight="normal" text-anchor="middle"><tspan x="630" y="387">2020-10-08T12:14:30+00:00</tspan></text><path d="M 417 1581 L 427 1591 L 417 1601 L 407 1591 Z" fill="#8B8B8B" stroke="#8B8B8B" stroke-width="2.0"/><text fill="#774400" font-decoration="none" font-family="Arial,Helvetica" font-size="0" font-weight="normal" text-anchor="middle"><tspan x="417" y="1589">text</tspan></text><ellipse cx="627" cy="501" fill="#F9E79F" rx="140" ry="20" stroke="#B7950B" stroke-width="2.0"/><text fill="#774400" font-decoration="none" font-family="Arial,Helvetica" font-size="18" font-weight="normal" text-anchor="middle"><tspan x="626" y="507">Lorem ipsum dolor sit amet.</tspan></text><path d="M 417 1681 L 427 1691 L 417 1701 L 407 1691 Z" fill="#8B8B8B" stroke="#8B8B8B" stroke-width="2.0"/><text fill="#774400" font-decoration="none" font-family="Arial,Helvetica" font-size="0" font-weight="normal" text-anchor="middle"><tspan x="417" y="1689">media</tspan></text><ellipse cx="589" cy="621" fill="#F9E79F" rx="100" ry="20" stroke="#B7950B" stroke-width="2.0"/><text fill="#774400" font-decoration="none" font-family="Arial,Helvetica" font-size="18" font-weight="normal" text-anchor="middle"><tspan x="589" y="627">www.example.com</tspan></text><path d="M 417 871 L 427 881 L 417 891 L 407 881 Z" fill="#8B8B8B" stroke="#8B8B8B" stroke-width="2.0"/><text fill="#774400" font-decoration="none" font-family="Arial,Helvetica" font-size="0" font-weight="normal" text-anchor="middle"><tspan x="417" y="879">C:\Users\b1107336\Documents\Code\sarp-graph\sar-graph\validation\application\exampleCSV\posts.csv_rows_2</tspan></text><ellipse cx="630" cy="741" fill="#F9E79F" rx="140" ry="20" stroke="#B7950B" stroke-width="2.0"/><text fill="#774400" font-decoration="none" font-family="Arial,Helvetica" font-size="18" font-weight="normal" text-anchor="middle"><tspan x="630" y="747">2022-05-04T16:15:20+01:00</tspan></text><ellipse cx="2117" cy="861" fill="#F9E79F" rx="1630" ry="20" stroke="#B7950B" stroke-width="2.0"/><text fill="#774400" font-decoration="none" font-family="Arial,Helvetica" font-size="18" font-weight="normal" text-anchor="middle"><tspan x="2116" y="867">Nullam viverra justo nec velit rhoncus dapibus. Curabitur laoreet tristique scelerisque. Duis ut pretium ex. Vivamus vulputate elit et aliquet viverra. Donec suscipit laoreet arcu eu faucibus. In iaculis finibus turpis, sed rhoncus lectus. Pellentesque egestas, dolor in posuere sollicitudin, velit urna faucibus leo, quis congue enim velit a magna. </tspan></text><ellipse cx="527" cy="1001" fill="#F9E79F" rx="40" ry="40" stroke="#B7950B" stroke-width="2.0"/><path d="M 417 1251 L 427 1261 L 417 1271 L 407 1261 Z" fill="#8B8B8B" stroke="#8B8B8B" stroke-width="2.0"/><text fill="#774400" font-decoration="none" font-family="Arial,Helvetica" font-size="0" font-weight="normal" text-anchor="middle"><tspan x="417" y="1259">C:\Users\b1107336\Documents\Code\sarp-graph\sar-graph\validation\application\exampleCSV\posts.csv_rows_3</tspan></text><ellipse cx="630" cy="1141" fill="#F9E79F" rx="140" ry="20" stroke="#B7950B" stroke-width="2.0"/><text fill="#774400" font-decoration="none" font-family="Arial,Helvetica" font-size="18" font-weight="normal" text-anchor="middle"><tspan x="630" y="1147">2024-01-31T08:12:45+00:00</tspan></text><ellipse cx="1120" cy="1261" fill="#F9E79F" rx="630" ry="20" stroke="#B7950B" stroke-width="2.0"/><text fill="#774400" font-decoration="none" font-family="Arial,Helvetica" font-size="18" font-weight="normal" text-anchor="middle"><tspan x="1119" y="1267">Nullam feugiat non orci non ullamcorper. Duis ut condimentum arcu. Sed lacus dui, mollis eu mauris sit amet, imperdiet porttitor felis.</tspan></text><ellipse cx="560" cy="1381" fill="#F9E79F" rx="70" ry="20" stroke="#B7950B" stroke-width="2.0"/><text fill="#774400" font-decoration="none" font-family="Arial,Helvetica" font-size="18" font-weight="normal" text-anchor="middle"><tspan x="559" y="1387"> /example.png</tspan></text><path d="M 461 2015 L 471 2025 L 461 2035 L 451 2025 Z" fill="#8B8B8B" stroke="#8B8B8B" stroke-width="2.0"/><text fill="#774400" font-decoration="none" font-family="Arial,Helvetica" font-size="0" font-weight="normal" text-anchor="middle"><tspan x="461" y="2023">rows</tspan></text><path d="M 461 2755 L 471 2765 L 461 2775 L 451 2765 Z" fill="#8B8B8B" stroke="#8B8B8B" stroke-width="2.0"/><text fill="#774400" font-decoration="none" font-family="Arial,Helvetica" font-size="0" font-weight="normal" text-anchor="middle"><tspan x="461" y="2763">cols</tspan></text><path d="M 541 1625 L 551 1635 L 541 1645 L 531 1635 Z" fill="#8B8B8B" stroke="#8B8B8B" stroke-width="2.0"/><text fill="#774400" font-decoration="none" font-family="Arial,Helvetica" font-size="0" font-weight="normal" text-anchor="middle"><tspan x="541" y="1633">C:\Users\b1107336\Documents\Code\sarp-graph\sar-graph\validation\application\exampleCSV\profile_information.csv_rows_1</tspan></text><path d="M 541 2655 L 551 2665 L 541 2675 L 531 2665 Z" fill="#8B8B8B" stroke="#8B8B8B" stroke-width="2.0"/><text fill="#774400" font-decoration="none" font-family="Arial,Helvetica" font-size="0" font-weight="normal" text-anchor="middle"><tspan x="541" y="2663">col1</tspan></text><ellipse cx="651" cy="1515" fill="#F9E79F" rx="40" ry="20" stroke="#B7950B" stroke-width="2.0"/><text fill="#774400" font-decoration="none" font-family="Arial,Helvetica" font-size="18" font-weight="normal" text-anchor="middle"><tspan x="651" y="1521">﻿name</tspan></text><path d="M 541 2755 L 551 2765 L 541 2775 L 531 2765 Z" fill="#8B8B8B" stroke="#8B8B8B" stroke-width="2.0"/><text fill="#774400" font-decoration="none" font-family="Arial,Helvetica" font-size="0" font-weight="normal" text-anchor="middle"><tspan x="541" y="2763">col2</tspan></text><ellipse cx="685" cy="1635" fill="#F9E79F" rx="70" ry="20" stroke="#B7950B" stroke-width="2.0"/><text fill="#774400" font-decoration="none" font-family="Arial,Helvetica" font-size="18" font-weight="normal" text-anchor="middle"><tspan x="685" y="1641">surname: Max</tspan></text><path d="M 541 2855 L 551 2865 L 541 2875 L 531 2865 Z" fill="#8B8B8B" stroke="#8B8B8B" stroke-width="2.0"/><text fill="#774400" font-decoration="none" font-family="Arial,Helvetica" font-size="0" font-weight="normal" text-anchor="middle"><tspan x="541" y="2863">col3</tspan></text><ellipse cx="725" cy="1755" fill="#F9E79F" rx="110" ry="20" stroke="#B7950B" stroke-width="2.0"/><text fill="#774400" font-decoration="none" font-family="Arial,Helvetica" font-size="18" font-weight="normal" text-anchor="middle"><tspan x="724" y="1761">lastname: Mustermann</tspan></text><path d="M 541 2005 L 551 2015 L 541 2025 L 531 2015 Z" fill="#8B8B8B" stroke="#8B8B8B" stroke-width="2.0"/><text fill="#774400" font-decoration="none" font-family="Arial,Helvetica" font-size="0" font-weight="normal" text-anchor="middle"><tspan x="541" y="2013">C:\Users\b1107336\Documents\Code\sarp-graph\sar-graph\validation\application\exampleCSV\profile_information.csv_rows_2</tspan></text><ellipse cx="665" cy="1875" fill="#F9E79F" rx="50" ry="20" stroke="#B7950B" stroke-width="2.0"/><text fill="#774400" font-decoration="none" font-family="Arial,Helvetica" font-size="18" font-weight="normal" text-anchor="middle"><tspan x="664" y="1881">username</tspan></text><ellipse cx="645" cy="1995" fill="#F9E79F" rx="30" ry="20" stroke="#B7950B" stroke-width="2.0"/><text fill="#774400" font-decoration="none" font-family="Arial,Helvetica" font-size="18" font-weight="normal" text-anchor="middle"><tspan x="645" y="2001">maxm</tspan></text><ellipse cx="651" cy="2135" fill="#F9E79F" rx="40" ry="40" stroke="#B7950B" stroke-width="2.0"/><path d="M 541 2405 L 551 2415 L 541 2425 L 531 2415 Z" fill="#8B8B8B" stroke="#8B8B8B" stroke-width="2.0"/><text fill="#774400" font-decoration="none" font-family="Arial,Helvetica" font-size="0" font-weight="normal" text-anchor="middle"><tspan x="541" y="2413">C:\Users\b1107336\Documents\Code\sarp-graph\sar-graph\validation\application\exampleCSV\profile_information.csv_rows_3</tspan></text><ellipse cx="641" cy="2275" fill="#F9E79F" rx="30" ry="20" stroke="#B7950B" stroke-width="2.0"/><text fill="#774400" font-decoration="none" font-family="Arial,Helvetica" font-size="18" font-weight="normal" text-anchor="middle"><tspan x="641" y="2281">email</tspan></text><ellipse cx="733" cy="2395" fill="#F9E79F" rx="120" ry="20" stroke="#B7950B" stroke-width="2.0"/><text fill="#774400" font-decoration="none" font-family="Arial,Helvetica" font-size="18" font-weight="normal" text-anchor="middle"><tspan x="733" y="2401">m.muster@mail.example</tspan></text><ellipse cx="651" cy="2535" fill="#F9E79F" rx="40" ry="40" stroke="#B7950B" stroke-width="2.0"/><g><path d="M 200.0 21.000000000000007 L 188.0 27.000000000000004 L 191.0 21.000000000000007 L 188.0 15.000000000000004 z" fill="#000000" stroke="#000000" stroke-width="2.0"/><path d="M 141.0 1193.0 L 141.0 1193.0 L 161.0 1193.0 L 161.0 21.0 L 201.0 21.000000000000007" fill="none" stroke="#000000" stroke-width="2.0"/></g><text fill="#446299" font-decoration="none" font-family="Arial,Helvetica" font-size="0" font-weight="normal" text-anchor="middle"><tspan x="161" y="595">CONTAINS</tspan></text><g><path d="M 202.0 186.0 L 190.0 192.0 L 193.0 186.0 L 190.0 180.0 z" fill="#000000" stroke="#000000" stroke-width="2.0"/><path d="M 141.0 1203.0 L 141.0 1203.0 L 165.0 1203.0 L 165.0 186.0 L 203.0 186.0" fill="none" stroke="#000000" stroke-width="2.0"/></g><text fill="#446299" font-decoration="none" font-family="Arial,Helvetica" font-size="0" font-weight="normal" text-anchor="middle"><tspan x="165" y="685">CONTAINS</tspan></text><g><path d="M 203.0 1236.0 L 191.0 1242.0 L 194.0 1236.0 L 191.0 1230.0 z" fill="#000000" stroke="#000000" stroke-width="2.0"/><path d="M 141.0 1213.0 L 141.0 1213.0 L 169.0 1213.0 L 169.0 1236.0 L 204.0 1236.0" fill="none" stroke="#000000" stroke-width="2.0"/></g><text fill="#446299" font-decoration="none" font-family="Arial,Helvetica" font-size="0" font-weight="normal" text-anchor="middle"><tspan x="169" y="1226">CONTAINS</tspan></text><g><path d="M 205.0 2395.0 L 193.0 2401.0 L 196.0 2395.0 L 193.0 2389.0 z" fill="#000000" stroke="#000000" stroke-width="2.0"/><path d="M 141.0 1223.0 L 141.0 1223.0 L 169.0 1223.0 L 169.0 2395.0 L 206.0 2395.0" fill="none" stroke="#000000" stroke-width="2.0"/></g><text fill="#446299" font-decoration="none" font-family="Arial,Helvetica" font-size="0" font-weight="normal" text-anchor="middle"><tspan x="169" y="1811">CONTAINS</tspan></text><g><path d="M 404.0 101.0 L 392.0 107.0 L 395.0 101.0 L 392.0 95.0 z" fill="#000000" stroke="#000000" stroke-width="2.0"/><path d="M 343.9904922731778 176.1402094065031 L 345.0 176.0 L 365.0 176.0 L 365.0 101.0 L 405.0 101.0" fill="none" stroke="#000000" stroke-width="2.0"/></g><text fill="#446299" font-decoration="none" font-family="Arial,Helvetica" font-size="0" font-weight="normal" text-anchor="middle"><tspan x="365" y="127">MAPS_TO</tspan></text><g><path d="M 404.0 271.0 L 392.0 277.0 L 395.0 271.0 L 392.0 265.0 z" fill="#000000" stroke="#000000" stroke-width="2.0"/><path d="M 343.9904922731778 195.8597905934969 L 345.0 196.0 L 369.0 196.0 L 369.0 271.0 L 405.0 271.0" fill="none" stroke="#000000" stroke-width="2.0"/></g><text fill="#446299" font-decoration="none" font-family="Arial,Helvetica" font-size="0" font-weight="normal" text-anchor="middle"><tspan x="369" y="236">MAPS_TO</tspan></text><g><path d="M 484.0 41.0 L 472.0 47.0 L 475.0 41.0 L 472.0 35.0 z" fill="#000000" stroke="#000000" stroke-width="2.0"/><path d="M 425.0 96.0 L 425.0 96.0 L 445.0 96.0 L 445.0 41.0 L 485.0 41.0" fill="none" stroke="#000000" stroke-width="2.0"/></g><text fill="#446299" font-decoration="none" font-family="Arial,Helvetica" font-size="0" font-weight="normal" text-anchor="middle"><tspan x="445" y="56">CONTAINS</tspan></text><g><path d="M 484.0 271.0 L 472.0 277.0 L 475.0 271.0 L 472.0 265.0 z" fill="#000000" stroke="#000000" stroke-width="2.0"/><path d="M 425.0 271.0 L 425.0 271.0 L 445.0 271.0 L 445.0 271.0 L 485.0 271.0" fill="none" stroke="#000000" stroke-width="2.0"/></g><text fill="#446299" font-decoration="none" font-family="Arial,Helvetica" font-size="0" font-weight="normal" text-anchor="middle"><tspan x="455" y="269">CONTAINS</tspan></text><g><path d="M 564.0 41.00000000000002 L 552.0 47.000000000000014 L 555.0 41.000000000000014 L 552.0 35.000000000000014 z" fill="#B7950B" stroke="#B7950B" stroke-width="2.0"/><path d="M 505.0 41.0 L 505.0 41.0 L 525.0 41.0 L 525.0 41.0 L 565.0 41.00000000000002" fill="none" stroke="#B7950B" stroke-width="2.0"/></g><text fill="#B7950B" font-decoration="none" font-family="Arial,Helvetica" font-size="0" font-weight="normal" text-anchor="middle"><tspan x="535" y="39">VALUE</tspan></text><g><path d="M 731.6423077853358 61.66257388220303 L 726.6297923286694 74.10743984358166 L 724.9013387229223 67.62573882203029 L 718.678905742233 65.11948109369709 z" fill="#B7950B" stroke="#B7950B" stroke-width="2.0"/><path d="M 505.7489965624904 261.4912722716431 L 732.3913043478261 61.0" fill="none" stroke="#B7950B" stroke-width="2.0"/></g><text fill="#B7950B" font-decoration="none" font-family="Arial,Helvetica" font-size="0" font-weight="normal" text-anchor="middle"><tspan x="618" y="159">VALUE</tspan></text><g><path d="M 484.0 161.0 L 472.0 167.0 L 475.0 161.0 L 472.0 155.0 z" fill="#000000" stroke="#000000" stroke-width="2.0"/><path d="M 425.0 106.0 L 425.0 106.0 L 449.0 106.0 L 449.0 161.0 L 485.0 161.0" fill="none" stroke="#000000" stroke-width="2.0"/></g><text fill="#446299" font-decoration="none" font-family="Arial,Helvetica" font-size="0" font-weight="normal" text-anchor="middle"><tspan x="449" y="137">CONTAINS</tspan></text><g><path d="M 564.0 161.00000000000003 L 552.0 167.00000000000003 L 555.0 161.00000000000003 L 552.0 155.00000000000003 z" fill="#B7950B" stroke="#B7950B" stroke-width="2.0"/><path d="M 505.0 161.0 L 505.0 161.0 L 525.0 161.0 L 525.0 161.0 L 565.0 161.00000000000003" fill="none" stroke="#B7950B" stroke-width="2.0"/></g><text fill="#B7950B" font-decoration="none" font-family="Arial,Helvetica" font-size="0" font-weight="normal" text-anchor="middle"><tspan x="535" y="159">VALUE</tspan></text><g><path d="M 674.1055728090001 181.44721359549996 L 666.0557280900008 192.18033988749895 L 666.0557280900009 185.47213595499957 L 660.6891649440014 181.44721359549996 z" fill="#B7950B" stroke="#B7950B" stroke-width="2.0"/><path d="M 505.8944271909999 265.55278640450007 L 675.0 181.0" fill="none" stroke="#B7950B" stroke-width="2.0"/></g><text fill="#B7950B" font-decoration="none" font-family="Arial,Helvetica" font-size="0" font-weight="normal" text-anchor="middle"><tspan x="590" y="221">VALUE</tspan></text><g><path d="M 326.0 881.0 L 314.0 887.0 L 317.0 881.0 L 314.0 875.0 z" fill="#000000" stroke="#000000" stroke-width="2.0"/><path d="M 264.95702440443347 1226.6190835138082 L 267.0 1226.0 L 287.0 1226.0 L 287.0 881.0 L 327.0 881.0" fill="none" stroke="#000000" stroke-width="2.0"/></g><text fill="#446299" font-decoration="none" font-family="Arial,Helvetica" font-size="0" font-weight="normal" text-anchor="middle"><tspan x="287" y="1043">MAPS_TO</tspan></text><g><path d="M 326.0 1591.0 L 314.0 1597.0 L 317.0 1591.0 L 314.0 1585.0 z" fill="#000000" stroke="#000000" stroke-width="2.0"/><path d="M 264.95702440443347 1245.3809164861918 L 267.0 1246.0 L 291.0 1246.0 L 291.0 1591.0 L 327.0 1591.0" fill="none" stroke="#000000" stroke-width="2.0"/></g><text fill="#446299" font-decoration="none" font-family="Arial,Helvetica" font-size="0" font-weight="normal" text-anchor="middle"><tspan x="291" y="1420">MAPS_TO</tspan></text><g><path d="M 406.0 501.0 L 394.0 507.0 L 397.0 501.0 L 394.0 495.0 z" fill="#000000" stroke="#000000" stroke-width="2.0"/><path d="M 347.0 874.3333333333334 L 347.0 874.3333333333334 L 367.0 874.3333333333334 L 367.0 501.0 L 407.0 501.0" fill="none" stroke="#000000" stroke-width="2.0"/></g><text fill="#446299" font-decoration="none" font-family="Arial,Helvetica" font-size="0" font-weight="normal" text-anchor="middle"><tspan x="367" y="675">CONTAINS</tspan></text><g><path d="M 406.0 1491.0 L 394.0 1497.0 L 397.0 1491.0 L 394.0 1485.0 z" fill="#000000" stroke="#000000" stroke-width="2.0"/><path d="M 347.0 1584.3333333333333 L 347.0 1584.3333333333333 L 367.0 1584.3333333333333 L 367.0 1491.0 L 407.0 1491.0" fill="none" stroke="#000000" stroke-width="2.0"/></g><text fill="#446299" font-decoration="none" font-family="Arial,Helvetica" font-size="0" font-weight="normal" text-anchor="middle"><tspan x="367" y="1525">CONTAINS</tspan></text><g><path d="M 489.0 381.0 L 477.0 387.0 L 480.0 381.0 L 477.0 375.0 z" fill="#B7950B" stroke="#B7950B" stroke-width="2.0"/><path d="M 427.0 494.3333333333333 L 427.0 494.3333333333333 L 447.0 494.3333333333333 L 447.0 381.0 L 490.0 381.0" fill="none" stroke="#B7950B" stroke-width="2.0"/></g><text fill="#B7950B" font-decoration="none" font-family="Arial,Helvetica" font-size="0" font-weight="normal" text-anchor="middle"><tspan x="447" y="424">VALUE</tspan></text><g><path d="M 625.9737085707104 401.9820820962979 L 629.6047580510768 414.89778880058367 L 624.2776262476445 410.82082096297927 L 617.8197728955016 412.6363457031625 z" fill="#B7950B" stroke="#B7950B" stroke-width="2.0"/><path d="M 419.1073725103707 1480.017917903702 L 626.1621621621622 401.0" fill="none" stroke="#B7950B" stroke-width="2.0"/></g><text fill="#B7950B" font-decoration="none" font-family="Arial,Helvetica" font-size="0" font-weight="normal" text-anchor="middle"><tspan x="522" y="939">VALUE</tspan></text><g><path d="M 406.0 1591.0 L 394.0 1597.0 L 397.0 1591.0 L 394.0 1585.0 z" fill="#000000" stroke="#000000" stroke-width="2.0"/><path d="M 347.0 1591.0 L 347.0 1591.0 L 371.0 1591.0 L 371.0 1591.0 L 407.0 1591.0" fill="none" stroke="#000000" stroke-width="2.0"/></g><text fill="#446299" font-decoration="none" font-family="Arial,Helvetica" font-size="0" font-weight="normal" text-anchor="middle"><tspan x="377" y="1589">CONTAINS</tspan></text><g><path d="M 486.0 501.0 L 474.0 507.0 L 477.0 501.0 L 474.0 495.0 z" fill="#B7950B" stroke="#B7950B" stroke-width="2.0"/><path d="M 427.0 501.0 L 427.0 501.0 L 451.0 501.0 L 451.0 501.0 L 487.0 501.0" fill="none" stroke="#B7950B" stroke-width="2.0"/></g><text fill="#B7950B" font-decoration="none" font-family="Arial,Helvetica" font-size="0" font-weight="normal" text-anchor="middle"><tspan x="457" y="499">VALUE</tspan></text><g><path d="M 622.9576074786787 521.9819421344773 L 626.5790821397784 534.9003368210865 L 621.2549738693557 530.8194213447728 L 614.7957765260512 532.6301586753225 z" fill="#B7950B" stroke="#B7950B" stroke-width="2.0"/><path d="M 419.11578701673415 1580.0180578655227 L 623.1467889908257 521.0" fill="none" stroke="#B7950B" stroke-width="2.0"/></g><text fill="#B7950B" font-decoration="none" font-family="Arial,Helvetica" font-size="0" font-weight="normal" text-anchor="middle"><tspan x="521" y="1049">VALUE</tspan></text><g><path d="M 406.0 1691.0 L 394.0 1697.0 L 397.0 1691.0 L 394.0 1685.0 z" fill="#000000" stroke="#000000" stroke-width="2.0"/><path d="M 347.0 1597.6666666666667 L 347.0 1597.6666666666667 L 375.0 1597.6666666666667 L 375.0 1691.0 L 407.0 1691.0" fill="none" stroke="#000000" stroke-width="2.0"/></g><text fill="#446299" font-decoration="none" font-family="Arial,Helvetica" font-size="0" font-weight="normal" text-anchor="middle"><tspan x="375" y="1644">CONTAINS</tspan></text><g><path d="M 488.0 621.0 L 476.0 627.0 L 479.0 621.0 L 476.0 615.0 z" fill="#B7950B" stroke="#B7950B" stroke-width="2.0"/><path d="M 427.0 507.6666666666667 L 427.0 507.6666666666667 L 455.0 507.6666666666667 L 455.0 621.0 L 489.0 621.0" fill="none" stroke="#B7950B" stroke-width="2.0"/></g><text fill="#B7950B" font-decoration="none" font-family="Arial,Helvetica" font-size="0" font-weight="normal" text-anchor="middle"><tspan x="455" y="565">VALUE</tspan></text><g><path d="M 585.626336508652 641.9873252078044 L 589.6457651116389 654.7874890233769 L 584.1979445257724 650.873252078044 L 577.7978626179861 652.8829663795374 z" fill="#B7950B" stroke="#B7950B" stroke-width="2.0"/><path d="M 418.76618685583395 1680.0126747921956 L 585.7850467289719 641.0" fill="none" stroke="#B7950B" stroke-width="2.0"/></g><text fill="#B7950B" font-decoration="none" font-family="Arial,Helvetica" font-size="0" font-weight="normal" text-anchor="middle"><tspan x="502" y="1159">VALUE</tspan></text><g><path d="M 406.0 881.0 L 394.0 887.0 L 397.0 881.0 L 394.0 875.0 z" fill="#000000" stroke="#000000" stroke-width="2.0"/><path d="M 347.0 881.0 L 347.0 881.0 L 371.0 881.0 L 371.0 881.0 L 407.0 881.0" fill="none" stroke="#000000" stroke-width="2.0"/></g><text fill="#446299" font-decoration="none" font-family="Arial,Helvetica" font-size="0" font-weight="normal" text-anchor="middle"><tspan x="377" y="879">CONTAINS</tspan></text><g><path d="M 489.0 741.0 L 477.0 747.0 L 480.0 741.0 L 477.0 735.0 z" fill="#B7950B" stroke="#B7950B" stroke-width="2.0"/><path d="M 427.0 874.3333333333334 L 427.0 874.3333333333334 L 447.0 874.3333333333334 L 447.0 741.0 L 490.0 741.0" fill="none" stroke="#B7950B" stroke-width="2.0"/></g><text fill="#B7950B" font-decoration="none" font-family="Arial,Helvetica" font-size="0" font-weight="normal" text-anchor="middle"><tspan x="447" y="794">VALUE</tspan></text><g><path d="M 624.0468038306767 761.961958342688 L 626.540199854924 775.1446354708843 L 621.5880383067662 770.6195834268799 L 614.996699742668 771.8662814390035 z" fill="#B7950B" stroke="#B7950B" stroke-width="2.0"/><path d="M 420.1131961693234 1480.038041657312 L 624.32 761.0" fill="none" stroke="#B7950B" stroke-width="2.0"/></g><text fill="#B7950B" font-decoration="none" font-family="Arial,Helvetica" font-size="0" font-weight="normal" text-anchor="middle"><tspan x="522" y="1119">VALUE</tspan></text><g><path d="M 486.0 861.0000000000002 L 473.99999999999994 867.0000000000001 L 477.0 861.0000000000002 L 474.00000000000006 855.0000000000001 z" fill="#B7950B" stroke="#B7950B" stroke-width="2.0"/><path d="M 427.0 881.0 L 427.0 881.0 L 451.0 881.0 L 451.0 861.0 L 487.0 861.0000000000002" fill="none" stroke="#B7950B" stroke-width="2.0"/></g><text fill="#B7950B" font-decoration="none" font-family="Arial,Helvetica" font-size="0" font-weight="normal" text-anchor="middle"><tspan x="451" y="863">VALUE</tspan></text><g><path d="M 2069.5057923093163 881.3945715377643 L 2060.8468388367373 891.6426213405173 L 2061.2360052849426 884.9457153776423 L 2056.1119803835663 880.6162386413525 z" fill="#B7950B" stroke="#B7950B" stroke-width="2.0"/><path d="M 427.9188652249304 1586.311310815177 L 2070.4246575342468 881.0" fill="none" stroke="#B7950B" stroke-width="2.0"/></g><text fill="#B7950B" font-decoration="none" font-family="Arial,Helvetica" font-size="0" font-weight="normal" text-anchor="middle"><tspan x="1248" y="1231">VALUE</tspan></text><g><path d="M 486.0 1001.0 L 474.0 1007.0 L 477.0 1001.0 L 474.0 995.0 z" fill="#B7950B" stroke="#B7950B" stroke-width="2.0"/><path d="M 427.0 887.6666666666666 L 427.0 887.6666666666666 L 455.0 887.6666666666666 L 455.0 1001.0 L 487.0 1001.0" fill="none" stroke="#B7950B" stroke-width="2.0"/></g><text fill="#B7950B" font-decoration="none" font-family="Arial,Helvetica" font-size="0" font-weight="normal" text-anchor="middle"><tspan x="455" y="944">VALUE</tspan></text><g><path d="M 520.4657561212701 1041.9875297847602 L 524.5017474155077 1054.7824809090453 L 519.0488655605271 1050.8752978476025 L 512.6513899983847 1052.893293494721 z" fill="#B7950B" stroke="#B7950B" stroke-width="2.0"/><path d="M 418.7516351830777 1680.0124702152398 L 520.6231884057971 1041.0" fill="none" stroke="#B7950B" stroke-width="2.0"/></g><text fill="#B7950B" font-decoration="none" font-family="Arial,Helvetica" font-size="0" font-weight="normal" text-anchor="middle"><tspan x="469" y="1359">VALUE</tspan></text><g><path d="M 406.0 1261.0 L 394.0 1267.0 L 397.0 1261.0 L 394.0 1255.0 z" fill="#000000" stroke="#000000" stroke-width="2.0"/><path d="M 347.0 887.6666666666666 L 347.0 887.6666666666666 L 375.0 887.6666666666666 L 375.0 1261.0 L 407.0 1261.0" fill="none" stroke="#000000" stroke-width="2.0"/></g><text fill="#446299" font-decoration="none" font-family="Arial,Helvetica" font-size="0" font-weight="normal" text-anchor="middle"><tspan x="375" y="1074">CONTAINS</tspan></text><g><path d="M 489.0 1141.0 L 477.0 1147.0 L 480.0 1141.0 L 477.0 1135.0 z" fill="#B7950B" stroke="#B7950B" stroke-width="2.0"/><path d="M 427.0 1254.3333333333333 L 427.0 1254.3333333333333 L 447.0 1254.3333333333333 L 447.0 1141.0 L 490.0 1141.0" fill="none" stroke="#B7950B" stroke-width="2.0"/></g><text fill="#B7950B" font-decoration="none" font-family="Arial,Helvetica" font-size="0" font-weight="normal" text-anchor="middle"><tspan x="447" y="1184">VALUE</tspan></text><g><path d="M 617.3087019129771 1161.8542456829014 L 616.1957418232541 1175.2244109712844 L 612.6298762726284 1169.5424568290143 L 605.9447936284369 1168.9859767841529 z" fill="#B7950B" stroke="#B7950B" stroke-width="2.0"/><path d="M 423.60558380130857 1480.1457543170986 L 617.8285714285714 1161.0" fill="none" stroke="#B7950B" stroke-width="2.0"/></g><text fill="#B7950B" font-decoration="none" font-family="Arial,Helvetica" font-size="0" font-weight="normal" text-anchor="middle"><tspan x="520" y="1319">VALUE</tspan></text><g><path d="M 489.0 1261.0 L 477.0 1267.0 L 480.0 1261.0 L 477.0 1255.0 z" fill="#B7950B" stroke="#B7950B" stroke-width="2.0"/><path d="M 427.0 1261.0 L 427.0 1261.0 L 451.0 1261.0 L 451.0 1261.0 L 490.0 1261.0" fill="none" stroke="#B7950B" stroke-width="2.0"/></g><text fill="#B7950B" font-decoration="none" font-family="Arial,Helvetica" font-size="0" font-weight="normal" text-anchor="middle"><tspan x="458" y="1259">VALUE</tspan></text><g><path d="M 1076.4887125580547 1281.4249286711836 L 1068.175562554537 1291.9554337406953 L 1068.3416710350905 1285.2492867118353 L 1063.0764185003345 1281.0927117100764 z" fill="#B7950B" stroke="#B7950B" stroke-width="2.0"/><path d="M 427.9052268358849 1585.880903476754 L 1077.3939393939395 1281.0" fill="none" stroke="#B7950B" stroke-width="2.0"/></g><text fill="#B7950B" font-decoration="none" font-family="Arial,Helvetica" font-size="0" font-weight="normal" text-anchor="middle"><tspan x="752" y="1431">VALUE</tspan></text><g><path d="M 489.0 1381.0 L 477.0 1387.0 L 480.0 1381.0 L 477.0 1375.0 z" fill="#B7950B" stroke="#B7950B" stroke-width="2.0"/><path d="M 427.0 1267.6666666666667 L 427.0 1267.6666666666667 L 455.0 1267.6666666666667 L 455.0 1381.0 L 490.0 1381.0" fill="none" stroke="#B7950B" stroke-width="2.0"/></g><text fill="#B7950B" font-decoration="none" font-family="Arial,Helvetica" font-size="0" font-weight="normal" text-anchor="middle"><tspan x="455" y="1325">VALUE</tspan></text><g><path d="M 550.3553211324294 1401.9080450975307 L 550.7771227261211 1415.3178207636468 L 546.5854693888095 1410.080450975308 L 539.8805815557515 1410.2913517721538 z" fill="#B7950B" stroke="#B7950B" stroke-width="2.0"/><path d="M 422.0317756417642 1680.0919549024693 L 550.7741935483871 1401.0" fill="none" stroke="#B7950B" stroke-width="2.0"/></g><text fill="#B7950B" font-decoration="none" font-family="Arial,Helvetica" font-size="0" font-weight="normal" text-anchor="middle"><tspan x="486" y="1539">VALUE</tspan></text><g><path d="M 450.0 2025.0 L 438.0 2031.0 L 441.0 2025.0 L 438.0 2019.0 z" fill="#000000" stroke="#000000" stroke-width="2.0"/><path d="M 386.99450545292143 2385.4216310049555 L 391.0 2385.0 L 411.0 2385.0 L 411.0 2025.0 L 451.0 2025.0" fill="none" stroke="#000000" stroke-width="2.0"/></g><text fill="#446299" font-decoration="none" font-family="Arial,Helvetica" font-size="0" font-weight="normal" text-anchor="middle"><tspan x="411" y="2195">MAPS_TO</tspan></text><g><path d="M 450.0 2765.0 L 438.0 2771.0 L 441.0 2765.0 L 438.0 2759.0 z" fill="#000000" stroke="#000000" stroke-width="2.0"/><path d="M 386.99450545292143 2404.5783689950445 L 391.0 2405.0 L 415.0 2405.0 L 415.0 2765.0 L 451.0 2765.0" fill="none" stroke="#000000" stroke-width="2.0"/></g><text fill="#446299" font-decoration="none" font-family="Arial,Helvetica" font-size="0" font-weight="normal" text-anchor="middle"><tspan x="415" y="2586">MAPS_TO</tspan></text><g><path d="M 530.0 1635.0 L 518.0 1641.0 L 521.0 1635.0 L 518.0 1629.0 z" fill="#000000" stroke="#000000" stroke-width="2.0"/><path d="M 471.0 2018.3333333333333 L 471.0 2018.3333333333333 L 491.0 2018.3333333333333 L 491.0 1635.0 L 531.0 1635.0" fill="none" stroke="#000000" stroke-width="2.0"/></g><text fill="#446299" font-decoration="none" font-family="Arial,Helvetica" font-size="0" font-weight="normal" text-anchor="middle"><tspan x="491" y="1814">CONTAINS</tspan></text><g><path d="M 530.0 2665.0 L 518.0 2671.0 L 521.0 2665.0 L 518.0 2659.0 z" fill="#000000" stroke="#000000" stroke-width="2.0"/><path d="M 471.0 2758.3333333333335 L 471.0 2758.3333333333335 L 491.0 2758.3333333333335 L 491.0 2665.0 L 531.0 2665.0" fill="none" stroke="#000000" stroke-width="2.0"/></g><text fill="#446299" font-decoration="none" font-family="Arial,Helvetica" font-size="0" font-weight="normal" text-anchor="middle"><tspan x="491" y="2699">CONTAINS</tspan></text><g><path d="M 610.0 1515.0 L 598.0 1521.0 L 601.0 1515.0 L 598.0 1509.0 z" fill="#B7950B" stroke="#B7950B" stroke-width="2.0"/><path d="M 551.0 1628.3333333333333 L 551.0 1628.3333333333333 L 571.0 1628.3333333333333 L 571.0 1515.0 L 611.0 1515.0" fill="none" stroke="#B7950B" stroke-width="2.0"/></g><text fill="#B7950B" font-decoration="none" font-family="Arial,Helvetica" font-size="0" font-weight="normal" text-anchor="middle"><tspan x="571" y="1559">VALUE</tspan></text><g><path d="M 648.9917389449352 1535.9954564847685 L 653.8218669318987 1548.5122397628138 L 648.1347807536997 1544.9545648476847 L 641.8763891146771 1547.3696288411666 z" fill="#B7950B" stroke="#B7950B" stroke-width="2.0"/><path d="M 542.0517393159344 2654.0045435152315 L 649.0869565217391 1535.0" fill="none" stroke="#B7950B" stroke-width="2.0"/></g><text fill="#B7950B" font-decoration="none" font-family="Arial,Helvetica" font-size="0" font-weight="normal" text-anchor="middle"><tspan x="595" y="2093">VALUE</tspan></text><g><path d="M 530.0 2765.0 L 518.0 2771.0 L 521.0 2765.0 L 518.0 2759.0 z" fill="#000000" stroke="#000000" stroke-width="2.0"/><path d="M 471.0 2765.0 L 471.0 2765.0 L 495.0 2765.0 L 495.0 2765.0 L 531.0 2765.0" fill="none" stroke="#000000" stroke-width="2.0"/></g><text fill="#446299" font-decoration="none" font-family="Arial,Helvetica" font-size="0" font-weight="normal" text-anchor="middle"><tspan x="501" y="2763">CONTAINS</tspan></text><g><path d="M 614.0 1635.0 L 602.0 1641.0 L 605.0 1635.0 L 602.0 1629.0 z" fill="#B7950B" stroke="#B7950B" stroke-width="2.0"/><path d="M 551.0 1635.0 L 551.0 1635.0 L 575.0 1635.0 L 575.0 1635.0 L 615.0 1635.0" fill="none" stroke="#B7950B" stroke-width="2.0"/></g><text fill="#B7950B" font-decoration="none" font-family="Arial,Helvetica" font-size="0" font-weight="normal" text-anchor="middle"><tspan x="583" y="1633">VALUE</tspan></text><g><path d="M 682.3249160894646 1655.991977909062 L 686.7598474138722 1668.654180882786 L 681.1872139919919 1664.9197790906187 L 674.8561125051299 1667.1372447528224 z" fill="#B7950B" stroke="#B7950B" stroke-width="2.0"/><path d="M 542.4007476273495 2754.008022090938 L 682.4513274336283 1655.0" fill="none" stroke="#B7950B" stroke-width="2.0"/></g><text fill="#B7950B" font-decoration="none" font-family="Arial,Helvetica" font-size="0" font-weight="normal" text-anchor="middle"><tspan x="612" y="2203">VALUE</tspan></text><g><path d="M 530.0 2865.0 L 518.0 2871.0 L 521.0 2865.0 L 518.0 2859.0 z" fill="#000000" stroke="#000000" stroke-width="2.0"/><path d="M 471.0 2771.6666666666665 L 471.0 2771.6666666666665 L 499.0 2771.6666666666665 L 499.0 2865.0 L 531.0 2865.0" fill="none" stroke="#000000" stroke-width="2.0"/></g><text fill="#446299" font-decoration="none" font-family="Arial,Helvetica" font-size="0" font-weight="normal" text-anchor="middle"><tspan x="499" y="2818">CONTAINS</tspan></text><g><path d="M 614.0 1755.0 L 602.0 1761.0 L 605.0 1755.0 L 602.0 1749.0 z" fill="#B7950B" stroke="#B7950B" stroke-width="2.0"/><path d="M 551.0 1641.6666666666667 L 551.0 1641.6666666666667 L 579.0 1641.6666666666667 L 579.0 1755.0 L 615.0 1755.0" fill="none" stroke="#B7950B" stroke-width="2.0"/></g><text fill="#B7950B" font-decoration="none" font-family="Arial,Helvetica" font-size="0" font-weight="normal" text-anchor="middle"><tspan x="579" y="1700">VALUE</tspan></text><g><path d="M 721.5211505123478 1775.9865376700754 L 725.477966464759 1788.8061947450033 L 720.0493429613163 1784.8653767007554 L 713.6395144238523 1786.8437846769611 z" fill="#B7950B" stroke="#B7950B" stroke-width="2.0"/><path d="M 542.8211918299945 2854.0134623299246 L 721.6846846846847 1775.0" fill="none" stroke="#B7950B" stroke-width="2.0"/></g><text fill="#B7950B" font-decoration="none" font-family="Arial,Helvetica" font-size="0" font-weight="normal" text-anchor="middle"><tspan x="632" y="2313">VALUE</tspan></text><g><path d="M 530.0 2015.0 L 518.0 2021.0 L 521.0 2015.0 L 518.0 2009.0 z" fill="#000000" stroke="#000000" stroke-width="2.0"/><path d="M 471.0 2025.0 L 471.0 2025.0 L 495.0 2025.0 L 495.0 2015.0 L 531.0 2015.0" fill="none" stroke="#000000" stroke-width="2.0"/></g><text fill="#446299" font-decoration="none" font-family="Arial,Helvetica" font-size="0" font-weight="normal" text-anchor="middle"><tspan x="496" y="2013">CONTAINS</tspan></text><g><path d="M 614.0 1875.0 L 602.0 1881.0 L 605.0 1875.0 L 602.0 1869.0 z" fill="#B7950B" stroke="#B7950B" stroke-width="2.0"/><path d="M 551.0 2008.3333333333333 L 551.0 2008.3333333333333 L 571.0 2008.3333333333333 L 571.0 1875.0 L 615.0 1875.0" fill="none" stroke="#B7950B" stroke-width="2.0"/></g><text fill="#B7950B" font-decoration="none" font-family="Arial,Helvetica" font-size="0" font-weight="normal" text-anchor="middle"><tspan x="571" y="1927">VALUE</tspan></text><g><path d="M 661.7056960015551 1895.9879045062216 L 665.772361133495 1908.7731395335752 L 660.310124572513 1904.8790450622157 L 653.9175070588362 1906.9123776281856 z" fill="#B7950B" stroke="#B7950B" stroke-width="2.0"/><path d="M 542.7246837452803 2654.0120954937784 L 661.8607594936709 1895.0" fill="none" stroke="#B7950B" stroke-width="2.0"/></g><text fill="#B7950B" font-decoration="none" font-family="Arial,Helvetica" font-size="0" font-weight="normal" text-anchor="middle"><tspan x="602" y="2273">VALUE</tspan></text><g><path d="M 614.0 1995.0 L 602.0 2001.0 L 605.0 1995.0 L 602.0 1989.0 z" fill="#B7950B" stroke="#B7950B" stroke-width="2.0"/><path d="M 551.0 2015.0 L 551.0 2015.0 L 575.0 2015.0 L 575.0 1995.0 L 615.0 1995.0" fill="none" stroke="#B7950B" stroke-width="2.0"/></g><text fill="#B7950B" font-decoration="none" font-family="Arial,Helvetica" font-size="0" font-weight="normal" text-anchor="middle"><tspan x="575" y="1995">VALUE</tspan></text><g><path d="M 642.1648517237646 2015.9910016605886 L 646.5046667880563 2028.686119037271 L 640.9602055493349 2024.9100166058856 L 634.6126468609937 2027.0799241380314 z" fill="#B7950B" stroke="#B7950B" stroke-width="2.0"/><path d="M 542.484498925586 2754.0089983394114 L 642.2987012987013 2015.0" fill="none" stroke="#B7950B" stroke-width="2.0"/></g><text fill="#B7950B" font-decoration="none" font-family="Arial,Helvetica" font-size="0" font-weight="normal" text-anchor="middle"><tspan x="592" y="2383">VALUE</tspan></text><g><path d="M 610.0 2135.0 L 598.0 2141.0 L 601.0 2135.0 L 598.0 2129.0 z" fill="#B7950B" stroke="#B7950B" stroke-width="2.0"/><path d="M 551.0 2021.6666666666667 L 551.0 2021.6666666666667 L 579.0 2021.6666666666667 L 579.0 2135.0 L 611.0 2135.0" fill="none" stroke="#B7950B" stroke-width="2.0"/></g><text fill="#B7950B" font-decoration="none" font-family="Arial,Helvetica" font-size="0" font-weight="normal" text-anchor="middle"><tspan x="579" y="2078">VALUE</tspan></text><g><path d="M 644.8235999382007 2175.988836773759 L 648.9685869624496 2188.7488948680157 L 643.482574724473 2184.888367737588 L 637.1025456773447 2186.9608612497123 z" fill="#B7950B" stroke="#B7950B" stroke-width="2.0"/><path d="M 542.6558521165938 2854.011163226241 L 644.972602739726 2175.0" fill="none" stroke="#B7950B" stroke-width="2.0"/></g><text fill="#B7950B" font-decoration="none" font-family="Arial,Helvetica" font-size="0" font-weight="normal" text-anchor="middle"><tspan x="593" y="2513">VALUE</tspan></text><g><path d="M 530.0 2415.0 L 518.0 2421.0 L 521.0 2415.0 L 518.0 2409.0 z" fill="#000000" stroke="#000000" stroke-width="2.0"/><path d="M 471.0 2031.6666666666667 L 471.0 2031.6666666666667 L 499.0 2031.6666666666667 L 499.0 2415.0 L 531.0 2415.0" fill="none" stroke="#000000" stroke-width="2.0"/></g><text fill="#446299" font-decoration="none" font-family="Arial,Helvetica" font-size="0" font-weight="normal" text-anchor="middle"><tspan x="499" y="2223">CONTAINS</tspan></text><g><path d="M 610.0 2275.0 L 598.0 2281.0 L 601.0 2275.0 L 598.0 2269.0 z" fill="#B7950B" stroke="#B7950B" stroke-width="2.0"/><path d="M 551.0 2408.3333333333335 L 551.0 2408.3333333333335 L 571.0 2408.3333333333335 L 571.0 2275.0 L 611.0 2275.0" fill="none" stroke="#B7950B" stroke-width="2.0"/></g><text fill="#B7950B" font-decoration="none" font-family="Arial,Helvetica" font-size="0" font-weight="normal" text-anchor="middle"><tspan x="571" y="2329">VALUE</tspan></text><g><path d="M 635.6234195215272 2295.968663866044 L 638.454898514579 2309.0828823601787 L 633.3880413691179 2304.6866386604406 L 626.8309321220505 2306.1023781569666 z" fill="#B7950B" stroke="#B7950B" stroke-width="2.0"/><path d="M 543.8124779143702 2654.031336133956 L 635.8717948717949 2295.0" fill="none" stroke="#B7950B" stroke-width="2.0"/></g><text fill="#B7950B" font-decoration="none" font-family="Arial,Helvetica" font-size="0" font-weight="normal" text-anchor="middle"><tspan x="589" y="2473">VALUE</tspan></text><g><path d="M 612.0 2395.0 L 600.0 2401.0 L 603.0 2395.0 L 600.0 2389.0 z" fill="#B7950B" stroke="#B7950B" stroke-width="2.0"/><path d="M 551.0 2415.0 L 551.0 2415.0 L 575.0 2415.0 L 575.0 2395.0 L 613.0 2395.0" fill="none" stroke="#B7950B" stroke-width="2.0"/></g><text fill="#B7950B" font-decoration="none" font-family="Arial,Helvetica" font-size="0" font-weight="normal" text-anchor="middle"><tspan x="575" y="2396">VALUE</tspan></text><g><path d="M 722.161024387165 2415.8876092539012 L 721.9595130970902 2429.3025037074544 L 718.0156492770541 2423.8760925390106 L 711.3082020502775 2423.7753368939734 z" fill="#B7950B" stroke="#B7950B" stroke-width="2.0"/><path d="M 546.6497864236459 2754.1123907460988 L 722.6216216216217 2415.0" fill="none" stroke="#B7950B" stroke-width="2.0"/></g><text fill="#B7950B" font-decoration="none" font-family="Arial,Helvetica" font-size="0" font-weight="normal" text-anchor="middle"><tspan x="634" y="2583">VALUE</tspan></text><g><path d="M 610.0 2535.0 L 598.0 2541.0 L 601.0 2535.0 L 598.0 2529.0 z" fill="#B7950B" stroke="#B7950B" stroke-width="2.0"/><path d="M 551.0 2421.6666666666665 L 551.0 2421.6666666666665 L 579.0 2421.6666666666665 L 579.0 2535.0 L 611.0 2535.0" fill="none" stroke="#B7950B" stroke-width="2.0"/></g><text fill="#B7950B" font-decoration="none" font-family="Arial,Helvetica" font-size="0" font-weight="normal" text-anchor="middle"><tspan x="579" y="2478">VALUE</tspan></text><g><path d="M 637.3504389006498 2575.9486832980506 L 639.2478054967507 2589.230249470758 L 634.5043890064983 2584.4868329805054 L 627.8636059201447 2585.4355162785555 z" fill="#B7950B" stroke="#B7950B" stroke-width="2.0"/><path d="M 544.6495610993502 2854.0513167019494 L 637.6666666666666 2575.0" fill="none" stroke="#B7950B" stroke-width="2.0"/></g><text fill="#B7950B" font-decoration="none" font-family="Arial,Helvetica" font-size="0" font-weight="normal" text-anchor="middle"><tspan x="591" y="2713">VALUE</tspan></text></svg>